<svg width="97" height="80" viewBox="0 0 97 80" fill="none" xmlns="http://www.w3.org/2000/svg">
<path d="M55.84 40.48V0.448003L96.16 0.448006V26.944C96.16 36.928 94.432 46.048 90.976 54.304C87.52 62.56 81.664 70.816 73.408 79.072L58.432 67.552C63.04 62.368 66.688 57.664 69.376 53.44C71.872 49.216 73.504 44.896 74.272 40.48H55.84ZM0.255981 40.48L0.255985 0.447998L40.576 0.448002V26.944C40.576 36.928 38.848 46.048 35.392 54.304C31.936 62.56 26.08 70.816 17.824 79.072L2.84798 67.552C7.45597 62.368 11.104 57.664 13.792 53.44C16.288 49.216 17.92 44.896 18.688 40.48H0.255981Z" fill="white" fill-opacity="0.2"/>
</svg>
