<svg width="60" height="61" viewBox="0 0 60 61" fill="none" xmlns="http://www.w3.org/2000/svg">
<rect x="5.93958" y="5.93994" width="48.1203" height="48.1201" rx="10" fill="white"/>
<path d="M48.7528 15.847C48.7528 13.3067 46.6934 11.2473 44.1531 11.2473H15.8472C13.3068 11.2473 11.2474 13.3067 11.2474 15.847V44.153C11.2474 46.6933 13.3068 48.7527 15.8472 48.7527H44.1531C46.6934 48.7527 48.7528 46.6933 48.7528 44.153V15.847ZM46.6299 44.153C46.6299 45.5206 45.5207 46.6297 44.1531 46.6297H15.8472C14.4788 46.6297 13.3704 45.5206 13.3704 44.153V15.847C13.3704 14.4787 14.4788 13.3703 15.8472 13.3703H44.1531C45.5207 13.3703 46.6299 14.4787 46.6299 15.847V44.153Z" fill="#2A2F3C"/>
<path d="M51.566 13.5433C51.566 10.2713 49.0103 7.6189 45.8574 7.6189H14.1425C10.9896 7.6189 8.43384 10.2713 8.43384 13.5433V46.4568C8.43384 49.7289 10.9896 52.3812 14.1425 52.3812H45.8574C49.0103 52.3812 51.566 49.7289 51.566 46.4568V13.5433ZM49.6631 46.4568C49.6631 48.638 47.9591 50.4064 45.8574 50.4064H14.1425C12.0402 50.4064 10.3367 48.638 10.3367 46.4568V13.5433C10.3367 11.3615 12.0402 9.59371 14.1425 9.59371H45.8574C47.9591 9.59371 49.6631 11.3615 49.6631 13.5433V46.4568Z" fill="white"/>
<path d="M33.8919 49.0305C33.3052 49.0305 32.8304 49.506 32.8304 50.092V58.9376C32.8304 59.5243 33.3052 59.9991 33.8919 59.9991C34.4779 59.9991 34.9534 59.5243 34.9534 58.9376V50.092C34.9534 49.506 34.4779 49.0305 33.8919 49.0305Z" fill="white"/>
<path d="M26.1076 49.0305C25.5209 49.0305 25.0461 49.506 25.0461 50.092V58.9376C25.0461 59.5243 25.5209 59.9991 26.1076 59.9991C26.6936 59.9991 27.1691 59.5243 27.1691 58.9376V50.092C27.1691 49.506 26.6936 49.0305 26.1076 49.0305Z" fill="white"/>
<path d="M26.1076 10.9686C26.6936 10.9686 27.1691 10.4931 27.1691 9.90708V1.06147C27.1691 0.475451 26.6936 0 26.1076 0C25.5209 0 25.0461 0.475451 25.0461 1.06147V9.90708C25.0461 10.4931 25.5209 10.9686 26.1076 10.9686Z" fill="white"/>
<path d="M33.8919 10.9686C34.4779 10.9686 34.9534 10.4931 34.9534 9.90708V1.06147C34.9534 0.475451 34.4779 0 33.8919 0C33.3052 0 32.8304 0.475451 32.8304 1.06147V9.90708C32.8304 10.4931 33.3052 10.9686 33.8919 10.9686Z" fill="white"/>
<path d="M58.9386 25.0466H50.093C49.5069 25.0466 49.0315 25.5214 49.0315 26.1081C49.0315 26.6941 49.5069 27.1696 50.093 27.1696H58.9386C59.5253 27.1696 60 26.6941 60 26.1081C60 25.5214 59.5253 25.0466 58.9386 25.0466Z" fill="white"/>
<path d="M58.9383 32.8311H50.0927C49.5067 32.8311 49.0312 33.3058 49.0312 33.8925C49.0312 34.4785 49.5067 34.954 50.0927 34.954H58.9383C59.525 34.954 59.9998 34.4785 59.9998 33.8925C59.9998 33.3058 59.525 32.8311 58.9383 32.8311Z" fill="white"/>
<path d="M9.90708 32.8306H1.06147C0.475451 32.8306 0 33.3053 0 33.892C0 34.4781 0.475451 34.9535 1.06147 34.9535H9.90708C10.4931 34.9535 10.9686 34.4781 10.9686 33.892C10.9686 33.3053 10.4931 32.8306 9.90708 32.8306Z" fill="white"/>
<path d="M9.90708 25.0466H1.06147C0.475451 25.0466 0 25.5214 0 26.1081C0 26.6941 0.475451 27.1696 1.06147 27.1696H9.90708C10.4931 27.1696 10.9686 26.6941 10.9686 26.1081C10.9686 25.5214 10.4931 25.0466 9.90708 25.0466Z" fill="white"/>
<path d="M30.12 38H34.32L28.608 21.2H23.712L18 38H22.2L23.04 35.36H29.28L30.12 38ZM24.192 31.76L26.16 25.592L28.128 31.76H24.192ZM35.7525 21.2V38H39.5925V21.2H35.7525Z" fill="#2A2F3C"/>
</svg>
