<svg width="50" height="50" viewBox="0 0 50 50" fill="none" xmlns="http://www.w3.org/2000/svg">
<path d="M48.9583 20.8333C48.75 20.8333 48.5417 20.8333 48.3333 20.625L43.125 17.0833C42.7083 16.875 42.0833 16.6667 41.4583 16.6667H28.125C26.4583 16.6667 25 15.2083 25 13.5417V3.125C25 1.45833 26.4583 0 28.125 0H46.875C48.5417 0 50 1.45833 50 3.125V19.7917C50 20.2083 49.7917 20.625 49.375 20.625C49.375 20.8333 49.1667 20.8333 48.9583 20.8333ZM28.125 2.08333C27.5 2.08333 27.0833 2.5 27.0833 3.125V13.5417C27.0833 14.1667 27.5 14.5833 28.125 14.5833H41.4583C42.5 14.5833 43.5417 14.7917 44.375 15.4167L47.9167 17.9167V3.125C47.9167 2.5 47.5 2.08333 46.875 2.08333H28.125Z" fill="url(#paint0_linear)"/>
<path d="M1.04167 24.9998C0.833333 24.9998 0.625 24.9998 0.625 24.7915C0.208333 24.7915 0 24.3748 0 23.9582V7.2915C0 5.62484 1.45833 4.1665 3.125 4.1665H19.7917C20.4167 4.1665 20.8333 4.58317 20.8333 5.20817C20.8333 5.83317 20.4167 6.24984 19.7917 6.24984H3.125C2.5 6.24984 2.08333 6.6665 2.08333 7.2915V22.0832L5.625 19.7915C6.45833 19.1665 7.5 18.7498 8.54166 18.7498H26.0417C26.6667 18.7498 27.0833 19.1665 27.0833 19.7915C27.0833 20.4165 26.6667 20.8332 26.0417 20.8332H8.54166C7.91666 20.8332 7.29166 21.0415 6.875 21.4582L1.66667 24.9998C1.45833 24.9998 1.25 24.9998 1.04167 24.9998Z" fill="white"/>
<path d="M11.4584 37.5C7.91671 37.5 5.20837 34.7917 5.20837 31.25C5.20837 27.7083 7.91671 25 11.4584 25C15 25 17.7084 27.7083 17.7084 31.25C17.7084 34.7917 15 37.5 11.4584 37.5ZM11.4584 27.0833C9.16671 27.0833 7.29171 28.9583 7.29171 31.25C7.29171 33.5417 9.16671 35.4167 11.4584 35.4167C13.75 35.4167 15.625 33.5417 15.625 31.25C15.625 28.9583 13.75 27.0833 11.4584 27.0833Z" fill="white"/>
<path d="M21.875 50.0002C21.25 50.0002 20.8333 49.5835 20.8333 48.9585V44.7918C20.8333 43.1252 19.375 41.6668 17.7083 41.6668H5.20833C3.54167 41.6668 2.08333 43.1252 2.08333 44.7918V48.9585C2.08333 49.5835 1.66667 50.0002 1.04167 50.0002C0.416667 50.0002 0 49.5835 0 48.9585V44.7918C0 41.8752 2.29167 39.5835 5.20833 39.5835H17.7083C20.625 39.5835 22.9167 41.8752 22.9167 44.7918V48.9585C22.9167 49.5835 22.5 50.0002 21.875 50.0002Z" fill="white"/>
<path d="M38.5416 37.5C35 37.5 32.2916 34.7917 32.2916 31.25C32.2916 27.7083 35 25 38.5416 25C42.0833 25 44.7916 27.7083 44.7916 31.25C44.7916 34.7917 42.0833 37.5 38.5416 37.5ZM38.5416 27.0833C36.25 27.0833 34.375 28.9583 34.375 31.25C34.375 33.5417 36.25 35.4167 38.5416 35.4167C40.8333 35.4167 42.7083 33.5417 42.7083 31.25C42.7083 28.9583 40.8333 27.0833 38.5416 27.0833Z" fill="white"/>
<path d="M48.9584 50.0002C48.3334 50.0002 47.9167 49.5835 47.9167 48.9585V44.7918C47.9167 43.1252 46.4584 41.6668 44.7917 41.6668H32.2917C30.625 41.6668 29.1667 43.1252 29.1667 44.7918V48.9585C29.1667 49.5835 28.75 50.0002 28.125 50.0002C27.5 50.0002 27.0834 49.5835 27.0834 48.9585V44.7918C27.0834 41.8752 29.375 39.5835 32.2917 39.5835H44.7917C47.7084 39.5835 50 41.8752 50 44.7918V48.9585C50 49.5835 49.5834 50.0002 48.9584 50.0002Z" fill="white"/>
<defs>
<linearGradient id="paint0_linear" x1="25" y1="20.8333" x2="50" y2="20.8333" gradientUnits="userSpaceOnUse">
<stop stop-color="#FB8133"/>
<stop offset="1" stop-color="#FFBA08"/>
</linearGradient>
</defs>
</svg>
