<svg width="63" height="40" viewBox="0 0 63 40" fill="none" xmlns="http://www.w3.org/2000/svg">
<path d="M9.51702 0.381341C7.70745 0.9813 5.52925 2.88117 4.62447 4.61438C4.02128 5.74764 3.85372 6.7809 3.68617 10.714C3.4516 16.0469 3.08298 17.0469 1.03883 17.6135C0.0335108 17.9135 0 17.9468 0 19.9467C0 21.9798 0.0335109 22.0132 1.07234 22.3132C3.08298 22.9464 3.4516 23.913 3.68617 29.246C3.92074 34.4123 4.32287 35.7122 6.26649 37.5454C7.2383 38.4787 10.6899 40.2119 11.0585 39.9786C11.1926 39.8786 11.4941 39.1786 11.6952 38.3787C12.0973 36.9455 12.0973 36.9121 10.958 35.7789C9.45 34.279 9.04787 32.7791 9.04787 28.5127C9.04787 24.313 8.61223 22.7131 7.03723 21.1466L5.83085 19.9467L7.03723 18.7801C8.57872 17.2802 9.04787 15.6469 9.04787 11.5139C9.04787 7.08088 9.48351 5.41433 10.958 4.11442C12.1309 3.11449 12.1309 3.11449 11.7287 1.61459C11.4941 0.814645 11.1926 0.0813614 11.092 0.0146993C10.9915 -0.0519627 10.2543 0.114693 9.51702 0.381341ZM51.1372 1.5146C50.6346 2.94783 50.6346 3.28114 51.0032 3.51446C51.2378 3.68111 51.5394 3.81444 51.6734 3.81444C51.8074 3.81444 52.2431 4.3144 52.6787 4.88103C53.3489 5.84763 53.483 6.48092 53.6505 10.6473C53.8851 15.9803 54.3878 17.6135 56.1638 19.08L57.3032 20.0133L56.2979 20.7466C54.3878 22.1798 53.8516 23.8131 53.684 28.8127C53.5165 33.779 52.9803 35.5122 51.4053 36.2122C50.9362 36.4122 50.6346 36.7788 50.7351 37.0121C50.8021 37.2121 51.0702 38.0121 51.3048 38.7787C51.6399 39.9453 51.8074 40.1119 52.4106 39.9453C55.0245 39.1453 57.1021 37.4454 58.208 35.2123C59.0457 33.479 59.1463 32.9124 59.2468 29.146C59.3138 26.8462 59.5149 24.5463 59.716 24.0464C60.0846 23.1131 61.492 22.1465 62.4973 22.1465C62.8995 22.1465 63 21.7132 63 19.98C63 18.3134 62.8995 17.8135 62.4973 17.8135C61.559 17.8135 60.2521 17.0135 59.783 16.1136C59.4479 15.4803 59.3138 14.0471 59.3138 11.5472C59.3138 5.78097 58.0404 2.84784 54.7564 1.11462C51.908 -0.418603 51.841 -0.418604 51.1372 1.5146ZM17.8277 26.8795C16.4537 27.2461 15.75 28.3127 15.75 29.9793C15.75 32.4125 18.3973 33.879 20.7096 32.6791C22.6532 31.6792 23.0553 29.546 21.6144 27.8794C20.7096 26.7795 19.4697 26.4795 17.8277 26.8795ZM29.8915 26.8795C28.5176 27.2461 27.8138 28.3127 27.8138 29.9793C27.8138 32.4125 30.4612 33.879 32.7734 32.6791C34.717 31.6792 35.1191 29.546 33.6782 27.8794C32.7734 26.7795 31.5335 26.4795 29.8915 26.8795ZM42.2904 26.8795C40.9165 27.2461 40.2128 28.3127 40.2128 29.9793C40.2128 32.4125 42.8601 33.879 45.1723 32.6791C47.116 31.6792 47.5181 29.546 46.0771 27.8794C45.1723 26.7795 43.9324 26.4795 42.2904 26.8795Z" fill="white"/>
</svg>
