<svg width="54" height="60" viewBox="0 0 54 60" fill="none" xmlns="http://www.w3.org/2000/svg">
<path d="M0 43.6109V16.8433C0 16.8433 1.3524e-07 14.9393 1.87188 13.9313C3.74376 12.9234 24.3345 0.771544 24.3345 0.771544C24.3345 0.771544 26.9438 -0.964429 29.6665 0.771544C29.6665 0.771544 54.1144 14.1553 53.7174 14.9393L42.8831 21.2112C42.8831 21.2112 40.8411 16.5073 35.4523 13.9313C29.0425 10.8514 18.6054 10.4594 11.1178 21.3792C11.1178 21.3792 6.23961 28.9391 11.288 39.0749L0.510514 45.0669C0.510514 45.0669 0 44.7309 0 43.6109Z" fill="white"/>
<path d="M34.7717 25.691C33.1834 23.0591 30.2905 21.2671 26.9438 21.2671C21.9522 21.2671 17.868 25.299 17.868 30.227C17.868 31.7949 18.2651 33.2509 19.0025 34.5389L34.7717 25.691Z" fill="white"/>
<path d="M18.9457 34.4831C20.5339 37.1151 23.4269 38.9071 26.7736 38.9071C31.7652 38.9071 35.8493 34.8751 35.8493 29.9472C35.8493 28.3792 35.4523 26.9232 34.7149 25.6353L18.9457 34.4831Z" fill="white"/>
<path d="M53.7174 14.939L27.3976 29.7787L53.5472 44.9545C54.4548 44.3945 53.7174 14.939 53.7174 14.939ZM45.5492 31.1787H43.3369V33.3627H40.9545V31.1787H38.6856V28.8828H40.9545V26.5868H43.3369V28.8828H45.5492V31.1787ZM53.2636 31.1787H51.0514V33.3627H48.669V31.1787H46.4V28.8828H48.669V26.5868H51.0514V28.8828H53.2636V31.1787Z" fill="white"/>
<path d="M11.2313 39.019C11.2313 39.019 16.4499 48.5389 27.3975 48.0349C38.3452 47.5309 42.8831 38.739 42.8831 38.739L53.4904 44.7869C53.4904 44.7869 55.8161 45.2349 29.8934 59.1787C29.8934 59.1787 27.1139 61.0267 24.1076 59.1787C24.1076 59.1787 0.680669 46.2429 0.510498 45.0109C0.510498 45.0109 11.2313 39.019 11.2313 39.019Z" fill="white"/>
</svg>
