<svg width="50" height="50" viewBox="0 0 50 50" fill="none" xmlns="http://www.w3.org/2000/svg">
<path d="M28.125 50.0001H21.875C20.4166 50.0001 18.75 48.7501 18.75 46.2501V41.8751C18.75 39.7918 17.7083 37.9167 16.0416 36.4584C12.2916 33.5417 10.4166 29.3751 10.4166 24.7917C10.625 16.8751 17.0833 10.6251 24.7916 10.4167C28.75 10.4167 32.5 11.8751 35.2083 14.5834C37.9166 17.2917 39.5833 21.0417 39.5833 25.0001C39.5833 29.3751 37.7083 33.5417 34.1666 36.2501C32.2916 37.7084 31.25 40.0001 31.25 42.0834V46.8751C31.25 48.5418 29.7916 50.0001 28.125 50.0001ZM25 12.5001C18.3333 12.5001 12.7083 18.1251 12.5 24.7917C12.5 28.7501 14.1666 32.5001 17.2916 34.7918C19.5833 36.6668 20.8333 39.1668 20.8333 41.8751V46.2501C20.8333 46.6668 20.8333 47.9168 21.875 47.9168H28.125C28.75 47.9168 29.1666 47.5001 29.1666 46.8751V42.0834C29.1666 39.3751 30.625 36.4584 32.9166 34.5834C35.8333 32.2917 37.5 28.7501 37.5 25.0001C37.5 21.6667 36.25 18.5417 33.75 16.0417C31.4583 13.7501 28.3333 12.5001 25 12.5001Z" fill="white"/>
<path d="M30.2083 43.7501H19.7917C19.1667 43.7501 18.75 43.3334 18.75 42.7084C18.75 42.0834 19.1667 41.6667 19.7917 41.6667H30.2083C30.8333 41.6667 31.25 42.0834 31.25 42.7084C31.25 43.3334 30.8333 43.7501 30.2083 43.7501Z" fill="white"/>
<path d="M25 6.25C24.375 6.25 23.9584 5.83333 23.9584 5.20833V1.04167C23.9584 0.416667 24.375 0 25 0C25.625 0 26.0417 0.416667 26.0417 1.04167V5.20833C26.0417 5.83333 25.625 6.25 25 6.25Z" fill="url(#paint0_linear)"/>
<path d="M38.9585 12.0832C38.7501 12.0832 38.3335 12.0832 38.1251 11.8749C37.7085 11.4582 37.7085 10.8332 38.1251 10.4165L41.0418 7.49988C41.4585 7.08321 42.0835 7.08321 42.5001 7.49988C42.9168 7.91654 42.9168 8.54155 42.5001 8.95821L39.5835 11.8749C39.5835 11.8749 39.1668 12.0832 38.9585 12.0832Z" fill="url(#paint1_linear)"/>
<path d="M48.9583 26.0416H44.7917C44.1667 26.0416 43.75 25.6249 43.75 24.9999C43.75 24.3749 44.1667 23.9583 44.7917 23.9583H48.9583C49.5833 23.9583 50 24.3749 50 24.9999C50 25.6249 49.5833 26.0416 48.9583 26.0416Z" fill="url(#paint2_linear)"/>
<path d="M41.8751 42.9166C41.6668 42.9166 41.2501 42.9166 41.0418 42.7083L38.1251 39.7916C37.7085 39.3749 37.7085 38.7499 38.1251 38.3333C38.5418 37.9166 39.1668 37.9166 39.5835 38.3333L42.5001 41.2499C42.9168 41.6666 42.9168 42.2916 42.5001 42.7083C42.5001 42.9166 42.2918 42.9166 41.8751 42.9166Z" fill="url(#paint3_linear)"/>
<path d="M8.12508 42.9166C7.91675 42.9166 7.50008 42.9166 7.29175 42.7083C6.87508 42.2916 6.87508 41.6666 7.29175 41.2499L10.2084 38.3333C10.6251 37.9166 11.2501 37.9166 11.6667 38.3333C12.0834 38.7499 12.0834 39.3749 11.6667 39.7916L8.75008 42.7083C8.54175 42.9166 8.33341 42.9166 8.12508 42.9166Z" fill="url(#paint4_linear)"/>
<path d="M5.20833 26.0416H1.04167C0.416667 26.0416 0 25.6249 0 24.9999C0 24.3749 0.416667 23.9583 1.04167 23.9583H5.20833C5.83333 23.9583 6.25 24.3749 6.25 24.9999C6.25 25.6249 5.83333 26.0416 5.20833 26.0416Z" fill="url(#paint5_linear)"/>
<path d="M11.0417 12.0834C10.8334 12.0834 10.4167 12.0834 10.2084 11.8751L7.29175 8.75008C6.87508 8.33341 6.87508 7.70841 7.29175 7.29175C7.70841 6.87508 8.33341 6.87508 8.75008 7.29175L11.6667 10.2084C12.0834 10.6251 12.0834 11.2501 11.6667 11.6667C11.4584 11.8751 11.2501 12.0834 11.0417 12.0834Z" fill="url(#paint6_linear)"/>
<path d="M33.3334 26.0417C32.7084 26.0417 32.2917 25.625 32.2917 25C32.2917 21.0417 28.9584 17.7083 25 17.7083C24.375 17.7083 23.9584 17.2917 23.9584 16.6667C23.9584 16.0417 24.375 15.625 25 15.625C30.2084 15.625 34.375 19.7917 34.375 25C34.375 25.625 33.9584 26.0417 33.3334 26.0417Z" fill="url(#paint7_linear)"/>
<defs>
<linearGradient id="paint0_linear" x1="23.9584" y1="6.25" x2="26.0417" y2="6.25" gradientUnits="userSpaceOnUse">
<stop stop-color="#FB8133"/>
<stop offset="1" stop-color="#FFBA08"/>
</linearGradient>
<linearGradient id="paint1_linear" x1="37.8126" y1="12.0832" x2="42.8126" y2="12.0832" gradientUnits="userSpaceOnUse">
<stop stop-color="#FB8133"/>
<stop offset="1" stop-color="#FFBA08"/>
</linearGradient>
<linearGradient id="paint2_linear" x1="43.75" y1="26.0416" x2="50" y2="26.0416" gradientUnits="userSpaceOnUse">
<stop stop-color="#FB8133"/>
<stop offset="1" stop-color="#FFBA08"/>
</linearGradient>
<linearGradient id="paint3_linear" x1="37.8126" y1="42.9166" x2="42.8126" y2="42.9166" gradientUnits="userSpaceOnUse">
<stop stop-color="#FB8133"/>
<stop offset="1" stop-color="#FFBA08"/>
</linearGradient>
<linearGradient id="paint4_linear" x1="6.97925" y1="42.9166" x2="11.9792" y2="42.9166" gradientUnits="userSpaceOnUse">
<stop stop-color="#FB8133"/>
<stop offset="1" stop-color="#FFBA08"/>
</linearGradient>
<linearGradient id="paint5_linear" x1="0" y1="26.0416" x2="6.25" y2="26.0416" gradientUnits="userSpaceOnUse">
<stop stop-color="#FB8133"/>
<stop offset="1" stop-color="#FFBA08"/>
</linearGradient>
<linearGradient id="paint6_linear" x1="6.97925" y1="12.0834" x2="11.9792" y2="12.0834" gradientUnits="userSpaceOnUse">
<stop stop-color="#FB8133"/>
<stop offset="1" stop-color="#FFBA08"/>
</linearGradient>
<linearGradient id="paint7_linear" x1="23.9584" y1="26.0417" x2="34.375" y2="26.0417" gradientUnits="userSpaceOnUse">
<stop stop-color="#FB8133"/>
<stop offset="1" stop-color="#FFBA08"/>
</linearGradient>
</defs>
</svg>
