<svg width="54" height="60" viewBox="0 0 54 60" fill="none" xmlns="http://www.w3.org/2000/svg">
<mask id="path-1-inside-1" fill="white">
<path d="M31.0182 18.2614C34.2326 18.0566 37.6873 18.1311 40.5877 19.7328C42.8415 20.962 44.0793 23.5323 44.1162 26.0466C44.0608 26.3819 43.7098 26.5681 43.3773 26.5495C42.4351 26.5495 41.5114 26.5681 40.5692 26.5495C40.1813 26.5681 39.9411 26.1956 39.8857 25.8418C39.6086 24.6311 38.962 23.4392 37.8351 22.8618C36.117 21.9864 34.1033 22.0423 32.2374 22.0609C30.8704 22.1354 29.3924 22.2472 28.2286 23.0667C27.3418 23.6813 27.0647 24.9291 27.3788 25.9349C27.6744 26.6613 28.5057 26.8848 29.1708 27.1083C33.0503 28.1326 37.17 28.0395 40.9756 29.3805C42.5459 29.9392 44.0977 31.0009 44.6335 32.6585C45.3355 34.8935 45.0214 37.5568 43.4512 39.3448C42.1764 40.8162 40.3106 41.6171 38.4632 42.0641C35.9877 42.6228 33.4383 42.6414 30.9258 42.3807C28.5611 42.1013 26.1226 41.4867 24.2936 39.8663C22.7418 38.5067 21.9844 36.3835 22.0583 34.3347C22.0767 33.9808 22.4093 33.7387 22.7418 33.776C23.684 33.776 24.6262 33.7573 25.5683 33.776C25.9378 33.7573 26.2149 34.074 26.2334 34.4278C26.3997 35.5826 26.843 36.7746 27.8222 37.4637C29.7435 38.7116 32.1451 38.6185 34.325 38.6557C36.1355 38.5812 38.1861 38.5439 39.664 37.3333C40.4399 36.6442 40.6801 35.4895 40.4584 34.5023C40.2367 33.6642 39.3684 33.2731 38.611 33.0124C34.7684 31.7831 30.6117 32.2301 26.8246 30.8519C25.2912 30.3117 23.7948 29.2687 23.2037 27.667C22.3723 25.4134 22.7603 22.6197 24.4968 20.8875C26.2334 19.1554 28.6904 18.4849 31.0182 18.2614Z"/>
</mask>
<path d="M31.0182 18.2614C34.2326 18.0566 37.6873 18.1311 40.5877 19.7328C42.8415 20.962 44.0793 23.5323 44.1162 26.0466C44.0608 26.3819 43.7098 26.5681 43.3773 26.5495C42.4351 26.5495 41.5114 26.5681 40.5692 26.5495C40.1813 26.5681 39.9411 26.1956 39.8857 25.8418C39.6086 24.6311 38.962 23.4392 37.8351 22.8618C36.117 21.9864 34.1033 22.0423 32.2374 22.0609C30.8704 22.1354 29.3924 22.2472 28.2286 23.0667C27.3418 23.6813 27.0647 24.9291 27.3788 25.9349C27.6744 26.6613 28.5057 26.8848 29.1708 27.1083C33.0503 28.1326 37.17 28.0395 40.9756 29.3805C42.5459 29.9392 44.0977 31.0009 44.6335 32.6585C45.3355 34.8935 45.0214 37.5568 43.4512 39.3448C42.1764 40.8162 40.3106 41.6171 38.4632 42.0641C35.9877 42.6228 33.4383 42.6414 30.9258 42.3807C28.5611 42.1013 26.1226 41.4867 24.2936 39.8663C22.7418 38.5067 21.9844 36.3835 22.0583 34.3347C22.0767 33.9808 22.4093 33.7387 22.7418 33.776C23.684 33.776 24.6262 33.7573 25.5683 33.776C25.9378 33.7573 26.2149 34.074 26.2334 34.4278C26.3997 35.5826 26.843 36.7746 27.8222 37.4637C29.7435 38.7116 32.1451 38.6185 34.325 38.6557C36.1355 38.5812 38.1861 38.5439 39.664 37.3333C40.4399 36.6442 40.6801 35.4895 40.4584 34.5023C40.2367 33.6642 39.3684 33.2731 38.611 33.0124C34.7684 31.7831 30.6117 32.2301 26.8246 30.8519C25.2912 30.3117 23.7948 29.2687 23.2037 27.667C22.3723 25.4134 22.7603 22.6197 24.4968 20.8875C26.2334 19.1554 28.6904 18.4849 31.0182 18.2614Z" fill="white"/>
<path d="M40.5877 19.7328L38.1705 24.1097L38.1821 24.1161L38.1936 24.1224L40.5877 19.7328ZM44.1162 26.0466L49.0493 26.8621L49.1223 26.4206L49.1157 25.9732L44.1162 26.0466ZM43.3773 26.5495L43.6569 21.5573L43.5172 21.5495H43.3773V26.5495ZM40.5692 26.5495L40.668 21.5505L40.4987 21.5471L40.3295 21.5553L40.5692 26.5495ZM39.8857 25.8418L44.8255 25.0681L44.7985 24.896L44.7596 24.7261L39.8857 25.8418ZM37.8351 22.8618L40.115 18.4118L40.1049 18.4067L37.8351 22.8618ZM32.2374 22.0609L32.1875 17.0612L32.0764 17.0623L31.9654 17.0683L32.2374 22.0609ZM28.2286 23.0667L31.0769 27.1761L31.0921 27.1655L31.1072 27.1549L28.2286 23.0667ZM27.3788 25.9349L22.6061 27.4252L22.6685 27.6253L22.7476 27.8195L27.3788 25.9349ZM29.1708 27.1083L27.578 31.8478L27.7346 31.9004L27.8943 31.9426L29.1708 27.1083ZM40.9756 29.3805L42.6518 24.6698L42.6446 24.6673L42.6373 24.6647L40.9756 29.3805ZM44.6335 32.6585L49.4037 31.1601L49.3975 31.1404L49.3912 31.1208L44.6335 32.6585ZM43.4512 39.3448L39.6943 36.0454L39.6832 36.0581L39.6721 36.0709L43.4512 39.3448ZM38.4632 42.0641L39.564 46.9414L39.6016 46.9329L39.639 46.9238L38.4632 42.0641ZM30.9258 42.3807L30.3391 47.3461L30.3744 47.3503L30.4097 47.354L30.9258 42.3807ZM24.2936 39.8663L27.6093 36.1238L27.599 36.1147L27.5886 36.1056L24.2936 39.8663ZM22.0583 34.3347L17.0651 34.074L17.063 34.1143L17.0615 34.1545L22.0583 34.3347ZM22.7418 33.776L22.1852 38.7449L22.4626 38.776H22.7418V33.776ZM25.5683 33.776L25.4695 38.775L25.6449 38.7785L25.8201 38.7696L25.5683 33.776ZM26.2334 34.4278L21.2402 34.6885L21.252 34.9155L21.2844 35.1404L26.2334 34.4278ZM27.8222 37.4637L24.9444 41.5525L25.0206 41.6061L25.0987 41.6569L27.8222 37.4637ZM34.325 38.6557L34.2396 43.655L34.3851 43.6575L34.5306 43.6515L34.325 38.6557ZM39.664 37.3333L42.8324 41.2013L42.9096 41.138L42.9843 41.0718L39.664 37.3333ZM40.4584 34.5023L45.3369 33.4067L45.3162 33.3148L45.2921 33.2238L40.4584 34.5023ZM38.611 33.0124L40.2385 28.2847L40.1866 28.2668L40.1344 28.2501L38.611 33.0124ZM26.8246 30.8519L28.5345 26.1533L28.5102 26.1445L28.4858 26.1359L26.8246 30.8519ZM23.2037 27.667L18.5127 29.3975L18.5129 29.3982L23.2037 27.667ZM31.3362 23.2513C34.4312 23.054 36.6168 23.2517 38.1705 24.1097L43.0048 15.3559C38.7577 13.0104 34.034 13.0591 30.7001 13.2716L31.3362 23.2513ZM38.1936 24.1224C38.5358 24.309 39.1003 25.0011 39.1168 26.1201L49.1157 25.9732C49.0582 22.0635 47.1473 17.6151 42.9818 15.3432L38.1936 24.1224ZM39.1832 25.2311C39.4275 23.753 40.3297 22.7414 41.1787 22.2046C41.9783 21.699 42.8514 21.5122 43.6569 21.5573L43.0976 31.5417C44.92 31.6438 48.4247 30.6402 49.0493 26.8621L39.1832 25.2311ZM43.3773 21.5495C42.2943 21.5495 41.5527 21.568 40.668 21.5505L40.4704 31.5485C41.47 31.5683 42.5759 31.5495 43.3773 31.5495V21.5495ZM40.3295 21.5553C41.9924 21.4754 43.2367 22.3068 43.9029 23.0859C44.4947 23.778 44.7373 24.505 44.8255 25.0681L34.9459 26.6154C35.0895 27.5324 35.4798 28.6226 36.3026 29.5848C37.1997 30.6339 38.7581 31.6422 40.809 31.5438L40.3295 21.5553ZM44.7596 24.7261C44.3093 22.7588 43.0737 19.9277 40.115 18.4118L35.5551 27.3117C35.1988 27.1292 35.0267 26.901 34.9801 26.8289C34.9426 26.7708 34.977 26.8055 35.0117 26.9574L44.7596 24.7261ZM40.1049 18.4067C37.0777 16.8643 33.7014 17.046 32.1875 17.0612L32.2873 27.0607C34.5052 27.0385 35.1562 27.1085 35.5652 27.3168L40.1049 18.4067ZM31.9654 17.0683C30.7937 17.1322 27.8583 17.2122 25.35 18.9784L31.1072 27.1549C30.9532 27.2633 30.9035 27.235 31.1547 27.1838C31.4401 27.1257 31.8169 27.0912 32.5095 27.0535L31.9654 17.0683ZM25.3803 18.9572C22.2824 21.1045 21.8044 24.8581 22.6061 27.4252L32.1515 24.4445C32.2828 24.8649 32.2847 25.2771 32.1759 25.6744C32.0631 26.0865 31.7609 26.702 31.0769 27.1761L25.3803 18.9572ZM22.7476 27.8195C23.4929 29.6511 24.8632 30.632 25.7862 31.1235C26.5819 31.5472 27.4968 31.8205 27.578 31.8478L30.7635 22.3687C30.482 22.2741 30.4599 22.2698 30.3535 22.2313C30.2899 22.2083 30.3584 22.2288 30.4862 22.2968C30.7534 22.4391 31.5603 22.9451 32.01 24.0503L22.7476 27.8195ZM27.8943 31.9426C30.2063 32.553 32.5896 32.8286 34.423 33.0795C36.4011 33.3502 37.9352 33.6105 39.3139 34.0963L42.6373 24.6647C40.2104 23.8095 37.7819 23.4459 35.7788 23.1718C33.6311 22.8779 32.0148 22.6878 30.4472 22.2739L27.8943 31.9426ZM39.2995 34.0912C39.4691 34.1515 39.619 34.2189 39.7434 34.2866C39.8684 34.3547 39.9487 34.4127 39.9924 34.4492C40.078 34.5205 39.9571 34.4478 39.8758 34.1962L49.3912 31.1208C48.1624 27.319 44.8703 25.4592 42.6518 24.6698L39.2995 34.0912ZM39.8633 34.1568C39.9874 34.552 40.019 34.9935 39.9573 35.3791C39.8967 35.7573 39.7697 35.9596 39.6943 36.0454L47.208 42.6442C50.1695 39.2721 50.5109 34.685 49.4037 31.1601L39.8633 34.1568ZM39.6721 36.0709C39.3739 36.415 38.6732 36.8689 37.2873 37.2043L39.639 46.9238C41.9479 46.3652 44.979 45.2173 47.2302 42.6188L39.6721 36.0709ZM37.3623 37.1867C35.5751 37.5901 33.6028 37.6317 31.4419 37.4074L30.4097 47.354C33.2737 47.6512 36.4002 47.6555 39.564 46.9414L37.3623 37.1867ZM31.5124 37.4152C29.4555 37.1722 28.2754 36.714 27.6093 36.1238L20.9779 43.6088C23.9697 46.2594 27.6668 47.0304 30.3391 47.3461L31.5124 37.4152ZM27.5886 36.1056C27.3546 35.9005 27.0257 35.3281 27.055 34.5149L17.0615 34.1545C16.9431 37.4388 18.129 41.1129 20.9987 43.6271L27.5886 36.1056ZM27.0515 34.5954C26.902 37.4596 24.3589 38.9884 22.1852 38.7449L23.2984 28.8071C20.4596 28.4891 17.2515 30.5021 17.0651 34.074L27.0515 34.5954ZM22.7418 38.776C23.824 38.776 24.585 38.7575 25.4695 38.775L25.6672 28.7769C24.6673 28.7572 23.544 28.776 22.7418 28.776V38.776ZM25.8201 38.7696C22.8436 38.9197 21.3325 36.4575 21.2402 34.6885L31.2266 34.1672C31.0973 31.6904 29.032 28.595 25.3166 28.7823L25.8201 38.7696ZM21.2844 35.1404C21.5288 36.8376 22.3056 39.6953 24.9444 41.5525L30.6999 33.3749C31.0513 33.6222 31.1974 33.8877 31.2294 33.9543C31.2449 33.9866 31.2402 33.9842 31.2268 33.9369C31.2137 33.8901 31.1969 33.8166 31.1824 33.7153L21.2844 35.1404ZM25.0987 41.6569C28.5068 43.8704 32.685 43.6284 34.2396 43.655L34.4104 33.6564C33.1117 33.6342 32.3602 33.6465 31.589 33.5513C30.9077 33.4673 30.6452 33.3352 30.5456 33.2705L25.0987 41.6569ZM34.5306 43.6515C35.31 43.6194 36.6764 43.586 38.024 43.338C39.4357 43.0783 41.2145 42.5266 42.8324 41.2013L36.4956 33.4654C36.6355 33.3507 36.6501 33.4229 36.2144 33.5031C35.7146 33.5951 35.1505 33.6175 34.1194 33.6599L34.5306 43.6515ZM42.9843 41.0718C45.4385 38.8921 45.8542 35.7105 45.3369 33.4067L35.5799 35.598C35.5212 35.3364 35.5199 35.0652 35.5956 34.7734C35.6738 34.4723 35.8754 34.0109 36.3437 33.5949L42.9843 41.0718ZM45.2921 33.2238C44.7871 31.3146 43.566 30.1117 42.5827 29.4306C41.6606 28.7919 40.7216 28.451 40.2385 28.2847L36.9834 37.7401C37.2578 37.8345 37.1317 37.8195 36.8885 37.6511C36.5841 37.4402 35.9079 36.852 35.6246 35.7809L45.2921 33.2238ZM40.1344 28.2501C37.6343 27.4503 35.0907 27.2165 33.2313 27.0166C31.1841 26.7966 29.7782 26.606 28.5345 26.1533L25.1147 35.5504C27.6581 36.476 30.2241 36.751 32.1627 36.9594C34.289 37.1879 35.7451 37.3452 37.0875 37.7746L40.1344 28.2501ZM28.4858 26.1359C28.166 26.0233 27.9516 25.8906 27.8454 25.8029C27.7518 25.7256 27.829 25.7585 27.8944 25.9358L18.5129 29.3982C19.8214 32.9435 22.8896 34.7669 25.1634 35.5678L28.4858 26.1359ZM27.8947 25.9366C27.7894 25.6511 27.7524 25.2854 27.8119 24.9465C27.8699 24.6165 27.9876 24.4677 28.0279 24.4276L20.9658 17.3475C17.6144 20.6903 17.1265 25.6398 18.5127 29.3975L27.8947 25.9366ZM28.0279 24.4276C28.5573 23.8995 29.6259 23.4181 31.496 23.2385L30.5403 13.2843C27.755 13.5517 23.9095 14.4114 20.9658 17.3475L28.0279 24.4276Z" fill="white" mask="url(#path-1-inside-1)"/>
<mask id="path-3-inside-2" fill="white">
<path d="M24.5707 0.642559C26.0486 -0.214186 27.9699 -0.214186 29.4478 0.642559C36.8559 4.87041 44.2824 9.07964 51.6905 13.3075C53.076 14.1084 54.0182 15.6729 53.9997 17.2932V42.7162C54.0182 44.4111 52.9837 46.0128 51.5057 46.7765C44.1161 50.9857 36.7266 55.1763 29.337 59.3855C27.8221 60.2609 25.8638 60.1864 24.4044 59.2552C22.1875 57.9514 19.9706 56.6663 17.7538 55.3812C17.2919 55.1018 16.7931 54.8969 16.4791 54.4499C16.7562 54.0588 17.2734 54.0216 17.6799 53.8539C18.6036 53.5559 19.4534 53.0903 20.3032 52.6247C20.5249 52.4757 20.7835 52.5316 20.9867 52.6619C22.8895 53.7608 24.7554 54.8783 26.6582 55.9772C27.0647 56.2193 27.4711 55.9027 27.8221 55.6978C35.0824 51.5631 42.3426 47.447 49.5845 43.3122C49.8616 43.1819 50.0094 42.9025 49.9724 42.6045V17.4422C50.0094 17.107 49.8061 16.7904 49.5106 16.66C42.1579 12.4508 34.8053 8.27877 27.4341 4.08817C27.1755 3.90192 26.8245 3.90192 26.5659 4.08817C19.1947 8.27877 11.8421 12.4694 4.47096 16.6414C4.17538 16.7717 3.97216 17.0884 4.00911 17.4236V42.5859C3.99064 42.8839 4.13843 43.1632 4.41554 43.2936C6.37378 44.4111 8.3505 45.5286 10.3087 46.6461C11.4172 47.2421 12.7843 47.596 14.0035 47.149C15.075 46.7578 15.8325 45.659 15.814 44.5042C15.8325 36.1603 15.814 27.8349 15.814 19.491C15.7955 19.1185 16.128 18.8205 16.4975 18.8577C17.4397 18.8577 18.3819 18.8391 19.3241 18.8577C19.712 18.8577 19.9891 19.2488 19.9337 19.6213C19.9337 28.0026 19.9522 36.4024 19.9337 44.7836C19.9337 47.0186 19.0285 49.4585 16.9779 50.5387C14.4469 51.8611 11.3248 51.5817 8.83082 50.3152C6.66937 49.235 4.60028 47.9498 2.47577 46.7765C0.997851 46.0128 -0.018217 44.3925 0.00025701 42.7162V17.2932C-0.018217 15.6356 0.960905 14.0525 2.40188 13.2702L24.5707 0.642559Z"/>
</mask>
<path d="M24.5707 0.642559C26.0486 -0.214186 27.9699 -0.214186 29.4478 0.642559C36.8559 4.87041 44.2824 9.07964 51.6905 13.3075C53.076 14.1084 54.0182 15.6729 53.9997 17.2932V42.7162C54.0182 44.4111 52.9837 46.0128 51.5057 46.7765C44.1161 50.9857 36.7266 55.1763 29.337 59.3855C27.8221 60.2609 25.8638 60.1864 24.4044 59.2552C22.1875 57.9514 19.9706 56.6663 17.7538 55.3812C17.2919 55.1018 16.7931 54.8969 16.4791 54.4499C16.7562 54.0588 17.2734 54.0216 17.6799 53.8539C18.6036 53.5559 19.4534 53.0903 20.3032 52.6247C20.5249 52.4757 20.7835 52.5316 20.9867 52.6619C22.8895 53.7608 24.7554 54.8783 26.6582 55.9772C27.0647 56.2193 27.4711 55.9027 27.8221 55.6978C35.0824 51.5631 42.3426 47.447 49.5845 43.3122C49.8616 43.1819 50.0094 42.9025 49.9724 42.6045V17.4422C50.0094 17.107 49.8061 16.7904 49.5106 16.66C42.1579 12.4508 34.8053 8.27877 27.4341 4.08817C27.1755 3.90192 26.8245 3.90192 26.5659 4.08817C19.1947 8.27877 11.8421 12.4694 4.47096 16.6414C4.17538 16.7717 3.97216 17.0884 4.00911 17.4236V42.5859C3.99064 42.8839 4.13843 43.1632 4.41554 43.2936C6.37378 44.4111 8.3505 45.5286 10.3087 46.6461C11.4172 47.2421 12.7843 47.596 14.0035 47.149C15.075 46.7578 15.8325 45.659 15.814 44.5042C15.8325 36.1603 15.814 27.8349 15.814 19.491C15.7955 19.1185 16.128 18.8205 16.4975 18.8577C17.4397 18.8577 18.3819 18.8391 19.3241 18.8577C19.712 18.8577 19.9891 19.2488 19.9337 19.6213C19.9337 28.0026 19.9522 36.4024 19.9337 44.7836C19.9337 47.0186 19.0285 49.4585 16.9779 50.5387C14.4469 51.8611 11.3248 51.5817 8.83082 50.3152C6.66937 49.235 4.60028 47.9498 2.47577 46.7765C0.997851 46.0128 -0.018217 44.3925 0.00025701 42.7162V17.2932C-0.018217 15.6356 0.960905 14.0525 2.40188 13.2702L24.5707 0.642559Z" fill="white"/>
<path d="M29.4478 0.642559L26.9402 4.96828L26.9548 4.97675L26.9695 4.98512L29.4478 0.642559ZM51.6905 13.3075L54.1926 8.97862L54.1808 8.97175L54.1688 8.96494L51.6905 13.3075ZM53.9997 17.2932L49.0001 17.2362L48.9997 17.2647V17.2932H53.9997ZM53.9997 42.7162H48.9997V42.7435L49 42.7707L53.9997 42.7162ZM51.5057 46.7765L49.2106 42.3344L49.1198 42.3813L49.031 42.4319L51.5057 46.7765ZM29.337 59.3855L26.8622 55.0409L26.8487 55.0486L26.8353 55.0563L29.337 59.3855ZM24.4044 59.2552L27.0939 55.0401L27.0174 54.9913L26.9391 54.9452L24.4044 59.2552ZM17.7538 55.3812L15.1659 59.6594L15.2058 59.6835L15.2462 59.7069L17.7538 55.3812ZM16.4791 54.4499L12.3993 51.5594L10.3599 54.4379L12.3879 57.3244L16.4791 54.4499ZM17.6799 53.8539L16.1447 49.0954L15.9564 49.1562L15.7735 49.2316L17.6799 53.8539ZM20.3032 52.6247L22.7058 57.0096L22.9044 56.9008L23.0923 56.7745L20.3032 52.6247ZM20.9867 52.6619L18.2868 56.8703L18.3851 56.9334L18.4862 56.9918L20.9867 52.6619ZM26.6582 55.9772L29.2172 51.6816L29.1881 51.6643L29.1587 51.6473L26.6582 55.9772ZM27.8221 55.6978L25.3477 51.353L25.3246 51.3661L25.3016 51.3796L27.8221 55.6978ZM49.5845 43.3122L47.4559 38.7879L47.277 38.8721L47.1053 38.9701L49.5845 43.3122ZM49.9724 42.6045H44.9724V42.9133L45.0104 43.2197L49.9724 42.6045ZM49.9724 17.4422L45.0025 16.8945L44.9724 17.1675V17.4422H49.9724ZM49.5106 16.66L47.0264 20.9992L47.2534 21.1292L47.4927 21.2347L49.5106 16.66ZM27.4341 4.08817L24.5123 8.14561L24.7299 8.3023L24.963 8.43483L27.4341 4.08817ZM26.5659 4.08817L29.037 8.43483L29.2701 8.3023L29.4877 8.14561L26.5659 4.08817ZM4.47096 16.6414L6.48877 21.2161L6.71685 21.1155L6.9338 20.9927L4.47096 16.6414ZM4.00911 17.4236H9.00911V17.1489L8.97902 16.8759L4.00911 17.4236ZM4.00911 42.5859L8.99953 42.8952L9.00911 42.7407V42.5859H4.00911ZM4.41554 43.2936L6.89372 38.951L6.7225 38.8532L6.54412 38.7693L4.41554 43.2936ZM10.3087 46.6461L7.83056 50.9887L7.88533 51.02L7.94088 51.0499L10.3087 46.6461ZM14.0035 47.149L12.2891 42.4521L12.2825 42.4545L14.0035 47.149ZM15.814 44.5042L10.814 44.4932L10.8139 44.5387L10.8146 44.5842L15.814 44.5042ZM15.814 19.491H20.814V19.3671L20.8079 19.2433L15.814 19.491ZM16.4975 18.8577L15.996 23.8325L16.2461 23.8577H16.4975V18.8577ZM19.3241 18.8577L19.2252 23.8567L19.2746 23.8577H19.3241V18.8577ZM19.9337 19.6213L14.9881 18.8855L14.9337 19.2514V19.6213H19.9337ZM19.9337 44.7836L14.9337 44.7726V44.7836H19.9337ZM16.9779 50.5387L19.2933 54.9703L19.3008 54.9664L19.3082 54.9624L16.9779 50.5387ZM8.83082 50.3152L11.0947 45.8571L11.0804 45.8498L11.0661 45.8427L8.83082 50.3152ZM2.47577 46.7765L4.89309 42.3996L4.83247 42.3662L4.77094 42.3344L2.47577 46.7765ZM0.00025701 42.7162L4.99995 42.7713L5.00026 42.7438V42.7162H0.00025701ZM0.00025701 17.2932H5.00026V17.2654L4.99995 17.2375L0.00025701 17.2932ZM2.40188 13.2702L4.78735 17.6645L4.83224 17.6401L4.87663 17.6149L2.40188 13.2702ZM27.0783 4.96828C27.0414 4.98966 27.0169 4.99706 27.009 4.99912C27.0016 5.00105 27.0026 5 27.0092 5C27.0159 5 27.0169 5.00105 27.0095 4.99912C27.0016 4.99706 26.9771 4.98966 26.9402 4.96828L31.9554 -3.68316C28.9266 -5.43895 25.0918 -5.43895 22.0631 -3.68316L27.0783 4.96828ZM26.9695 4.98512C30.6773 7.10119 34.3891 9.2123 38.0973 11.3213C41.8064 13.4308 45.5119 15.5383 49.2121 17.6501L54.1688 8.96494C50.461 6.84886 46.7491 4.73776 43.041 2.62879C39.3318 0.519217 35.6264 -1.58822 31.9261 -3.7L26.9695 4.98512ZM49.1883 17.6364C49.0961 17.583 49.0678 17.5381 49.0574 17.5204C49.0455 17.5001 48.9981 17.4107 49.0001 17.2362L58.9994 17.3502C59.0395 13.8304 57.0587 10.6352 54.1926 8.97862L49.1883 17.6364ZM48.9997 17.2932V42.7162H58.9997V17.2932H48.9997ZM49 42.7707C48.998 42.582 49.0529 42.4792 49.0705 42.4511C49.0854 42.4271 49.1175 42.3825 49.2106 42.3344L53.8009 51.2186C56.8462 49.6451 59.0398 46.3683 58.9994 42.6617L49 42.7707ZM49.031 42.4319C45.3386 44.5351 41.6459 46.6339 37.9507 48.734C34.2563 50.8338 30.5594 52.9349 26.8622 55.0409L31.8117 63.7301C35.5041 61.6269 39.1968 59.5281 42.892 57.428C46.5864 55.3282 50.2833 53.2271 53.9805 51.1211L49.031 42.4319ZM26.8353 55.0563C26.8877 55.0261 26.93 55.0121 26.9556 55.0059C26.9804 54.9999 26.9941 54.9999 26.9985 55C27.0027 55.0002 27.0089 55.0007 27.02 55.004C27.0315 55.0075 27.0574 55.0168 27.0939 55.0401L21.7149 63.4702C24.6966 65.3728 28.6558 65.5539 31.8386 63.7147L26.8353 55.0563ZM26.9391 54.9452C24.7064 53.6322 22.476 52.3393 20.2614 51.0555L15.2462 59.7069C17.4652 60.9933 19.6686 62.2706 21.8697 63.5651L26.9391 54.9452ZM20.3416 51.103C20.2308 51.0359 20.1297 50.9777 20.0493 50.932C19.9762 50.8905 19.8924 50.8436 19.8518 50.8209C19.739 50.7575 19.7353 50.7536 19.7581 50.7682C19.8175 50.8063 20.2072 51.0588 20.5702 51.5755L12.3879 57.3244C13.0649 58.288 13.8611 58.8665 14.3639 59.1886C14.6084 59.3452 14.8356 59.4729 14.956 59.5404C15.1123 59.6282 15.1383 59.6427 15.1659 59.6594L20.3416 51.103ZM20.5589 57.3405C19.8437 58.3498 18.9315 58.6964 18.7601 58.7596C18.6912 58.785 18.6261 58.8033 18.8037 58.7497C18.9082 58.7182 19.2317 58.6225 19.5863 58.4762L15.7735 49.2316C15.9249 49.1692 16.0312 49.141 15.9157 49.1758C15.8734 49.1886 15.5855 49.2721 15.3018 49.3766C14.7009 49.5981 13.3915 50.1589 12.3993 51.5594L20.5589 57.3405ZM19.215 58.6124C20.6653 58.1445 21.9265 57.4366 22.7058 57.0096L17.9006 48.2398C16.9802 48.7441 16.5418 48.9673 16.1447 49.0954L19.215 58.6124ZM23.0923 56.7745C20.9983 58.1819 18.969 57.308 18.2868 56.8703L23.6866 48.4536C22.598 47.7551 20.0515 46.7695 17.514 48.4749L23.0923 56.7745ZM18.4862 56.9918C19.4177 57.5297 20.3428 58.0738 21.2878 58.6295C22.2272 59.1819 23.1864 59.7461 24.1578 60.307L29.1587 51.6473C28.2273 51.1094 27.3021 50.5654 26.3571 50.0096C25.4177 49.4572 24.4586 48.893 23.4872 48.3321L18.4862 56.9918ZM24.0992 60.2727C26.0567 61.4388 27.9769 61.0814 29.0352 60.6797C29.5123 60.4986 29.8837 60.2887 30.0682 60.1811C30.1657 60.1242 30.2541 60.0701 30.2943 60.0455C30.35 60.0115 30.35 60.0117 30.3426 60.016L25.3016 51.3796C25.2064 51.4351 25.117 51.49 25.0816 51.5116C25.0309 51.5426 25.0267 51.5449 25.0304 51.5428C25.0377 51.5385 25.0825 51.5124 25.1521 51.4773C25.2218 51.4421 25.3361 51.3876 25.4867 51.3305C25.7767 51.2204 26.3144 51.0567 27.02 51.0648C27.7804 51.0736 28.5447 51.281 29.2172 51.6816L24.0992 60.2727ZM30.2965 60.0426C37.543 55.9157 44.8212 51.7894 52.0636 47.6543L47.1053 38.9701C39.8641 43.1045 32.6218 47.2104 25.3477 51.353L30.2965 60.0426ZM51.713 47.8365C53.9954 46.7627 55.2307 44.3787 54.9344 41.9893L45.0104 43.2197C44.788 41.4263 45.7278 39.601 47.4559 38.7879L51.713 47.8365ZM54.9724 42.6045V17.4422H44.9724V42.6045H54.9724ZM54.9423 17.99C55.2374 15.3124 53.6557 13.0235 51.5284 12.0852L47.4927 21.2347C45.9566 20.5572 44.7813 18.9015 45.0025 16.8945L54.9423 17.99ZM51.9947 12.3207C44.6336 8.10667 37.2714 3.92925 29.9053 -0.25849L24.963 8.43483C32.3391 12.6283 39.6822 16.7948 47.0264 20.9992L51.9947 12.3207ZM30.356 0.030729C28.3522 -1.41227 25.6478 -1.41227 23.644 0.030729L29.4877 8.14561C28.0011 9.21611 25.9988 9.21611 24.5123 8.14561L30.356 0.030729ZM24.0947 -0.25849C16.7173 3.93567 9.37372 8.12114 2.00813 12.29L6.9338 20.9927C14.3105 16.8176 21.6721 12.6219 29.037 8.43483L24.0947 -0.25849ZM2.45315 12.0666C0.325815 13.0049 -1.25589 15.2938 -0.960795 17.9713L8.97902 16.8759C9.20022 18.8829 8.02494 20.5386 6.48877 21.2161L2.45315 12.0666ZM-0.990887 17.4236V42.5859H9.00911V17.4236H-0.990887ZM-0.981307 42.2765C-1.11494 44.4321 -0.00919819 46.7376 2.28696 47.8179L6.54412 38.7693C8.28606 39.5889 9.09622 41.3356 8.99953 42.8952L-0.981307 42.2765ZM1.93736 47.6363C2.92161 48.1979 3.90975 48.7592 4.89275 49.3175C5.87723 49.8767 6.85657 50.4329 7.83056 50.9887L12.7869 42.3034C11.8027 41.7418 10.8145 41.1805 9.83153 40.6222C8.84705 40.063 7.86772 39.5068 6.89372 38.951L1.93736 47.6363ZM7.94088 51.0499C9.61972 51.9526 12.5722 52.9991 15.7246 51.8434L12.2825 42.4545C12.6596 42.3163 12.922 42.3542 12.949 42.3588C12.9647 42.3614 12.9439 42.3592 12.888 42.3389C12.8329 42.3189 12.7605 42.2874 12.6766 42.2423L7.94088 51.0499ZM15.718 51.8458C18.799 50.7212 20.8657 47.6987 20.8134 44.4242L10.8146 44.5842C10.806 44.0472 10.9742 43.6055 11.1943 43.2847C11.4135 42.965 11.7693 42.6418 12.2891 42.4521L15.718 51.8458ZM20.814 44.5153C20.8325 36.1649 20.814 27.8192 20.814 19.491H10.814C10.814 27.8506 10.8325 36.1556 10.814 44.4932L20.814 44.5153ZM20.8079 19.2433C20.95 22.1093 18.485 24.0834 15.996 23.8325L16.9991 13.8829C13.7711 13.5575 10.641 16.1277 10.8201 19.7386L20.8079 19.2433ZM16.4975 23.8577C17.5797 23.8577 18.3407 23.8393 19.2252 23.8567L19.4229 13.8587C18.4231 13.8389 17.2997 13.8577 16.4975 13.8577V23.8577ZM19.3241 23.8577C17.7343 23.8577 16.5156 23.0386 15.8295 22.1451C15.1694 21.2855 14.8034 20.1269 14.9881 18.8855L24.8793 20.3572C25.297 17.5495 23.3306 13.8577 19.3241 13.8577V23.8577ZM14.9337 19.6213C14.9337 28.0182 14.9522 36.3978 14.9337 44.7726L24.9337 44.7946C24.9522 36.407 24.9337 27.9869 24.9337 19.6213H14.9337ZM14.9337 44.7836C14.9337 45.2652 14.8299 45.6909 14.7016 45.9631C14.5834 46.2141 14.5266 46.1787 14.6475 46.115L19.3082 54.9624C23.6466 52.677 24.9337 48.0083 24.9337 44.7836H14.9337ZM14.6624 46.1071C13.8823 46.5147 12.5009 46.5712 11.0947 45.8571L6.56691 54.7733C10.1487 56.5922 15.0115 57.2074 19.2933 54.9703L14.6624 46.1071ZM11.0661 45.8427C8.99276 44.8065 7.35162 43.7575 4.89309 42.3996L0.0584472 51.1533C1.84894 52.1422 4.34597 53.6634 6.59556 54.7877L11.0661 45.8427ZM4.77094 42.3344C4.8872 42.3944 4.9246 42.4509 4.93655 42.4704C4.94974 42.4918 5.002 42.5854 4.99995 42.7713L-4.99944 42.6611C-5.03957 46.3024 -2.90834 49.6225 0.1806 51.2186L4.77094 42.3344ZM5.00026 42.7162V17.2932H-4.99974V42.7162H5.00026ZM4.99995 17.2375C5.00187 17.4103 4.95361 17.5055 4.93547 17.5355C4.919 17.5629 4.88308 17.6125 4.78735 17.6645L0.0164058 8.87599C-2.97391 10.4993 -5.03955 13.7495 -4.99943 17.349L4.99995 17.2375ZM4.87663 17.6149L27.0454 4.98716L22.0959 -3.70205L-0.0728788 8.92564L4.87663 17.6149Z" fill="white" mask="url(#path-3-inside-2)"/>
</svg>
