<svg width="87" height="34" viewBox="0 0 87 34" fill="none" xmlns="http://www.w3.org/2000/svg">
<g clip-path="url(#clip0)">
<path fill-rule="evenodd" clip-rule="evenodd" d="M18.6717 18.0166C18.672 17.8372 18.6257 17.661 18.5373 17.5055C18.4489 17.3501 18.3216 17.221 18.1682 17.1311L9.8334 12.2822C9.69407 12.1997 9.53652 12.1539 9.37516 12.1489H9.28863C9.12739 12.1547 8.97001 12.2004 8.83039 12.2822L0.50347 17.1311C0.350337 17.2213 0.223255 17.3505 0.134909 17.5058C0.0465637 17.6612 4.59941e-05 17.8373 0 18.0166L0.0177001 31.0769C0.0170712 31.166 0.0401011 31.2536 0.0843834 31.3307C0.128666 31.4077 0.192575 31.4712 0.269435 31.5147C0.344521 31.5615 0.430995 31.5863 0.519203 31.5863C0.607412 31.5863 0.693886 31.5615 0.768972 31.5147L5.7191 28.6515C5.87195 28.5615 5.99885 28.4326 6.08718 28.2776C6.1755 28.1227 6.22218 27.947 6.22257 27.7681V21.6637C6.22211 21.4849 6.26845 21.3091 6.35688 21.1543C6.44531 20.9995 6.57268 20.8711 6.72604 20.7822L8.83432 19.5546C8.98688 19.4638 9.16082 19.4164 9.33779 19.4173C9.51357 19.4161 9.68631 19.4636 9.83733 19.5546L11.9456 20.7822C12.0986 20.8716 12.2256 21.0001 12.314 21.1548C12.4023 21.3095 12.4489 21.485 12.4491 21.6637V27.7641C12.449 27.9436 12.4954 28.1201 12.5838 28.2758C12.6721 28.4315 12.7993 28.561 12.9526 28.6515L17.8968 31.5147C17.9722 31.5615 18.059 31.5862 18.1475 31.5862C18.236 31.5862 18.3228 31.5615 18.3983 31.5147C18.4744 31.4705 18.5375 31.4067 18.5814 31.3298C18.6253 31.253 18.6483 31.1657 18.6481 31.0769L18.6717 18.0166Z" fill="white"/>
<path fill-rule="evenodd" clip-rule="evenodd" d="M58.7506 0.0634973C58.6739 0.0205609 58.5875 -0.00139415 58.4999 -0.000197732C58.4123 0.000998689 58.3265 0.0253052 58.251 0.0703192C58.1755 0.115333 58.113 0.179496 58.0695 0.256466C58.0261 0.333436 58.0032 0.420547 58.0032 0.50919V13.4422C58.0033 13.5049 57.9871 13.5665 57.9561 13.6208C57.9252 13.675 57.8806 13.7201 57.8269 13.7514C57.7733 13.7827 57.7124 13.7991 57.6505 13.7989C57.5885 13.7988 57.5277 13.7822 57.4742 13.7506L55.3895 12.5349C55.2364 12.4455 55.0628 12.3985 54.886 12.3985C54.7093 12.3985 54.5356 12.4455 54.3826 12.5349L46.0497 17.3998C45.8969 17.4893 45.77 17.6178 45.6816 17.7724C45.5933 17.9271 45.5466 18.1025 45.5463 18.2812V28.0148C45.5466 28.1935 45.5933 28.3689 45.6816 28.5236C45.77 28.6782 45.8969 28.8067 46.0497 28.8962L54.3826 33.765C54.5354 33.855 54.7092 33.9025 54.886 33.9025C55.0629 33.9025 55.2366 33.855 55.3895 33.765L63.7204 28.8962C63.8729 28.8066 63.9996 28.6781 64.0876 28.5234C64.1756 28.3687 64.2219 28.1933 64.2219 28.0148V3.7524C64.2231 3.5726 64.1774 3.39566 64.0893 3.23948C64.0012 3.0833 63.874 2.95343 63.7204 2.86301L58.7506 0.0634973ZM57.9776 24.8174C57.9778 24.8619 57.9662 24.9056 57.944 24.9441C57.9219 24.9825 57.8901 25.0143 57.8518 25.0362L54.9922 26.7056C54.954 26.7281 54.9106 26.74 54.8664 26.74C54.8221 26.74 54.7787 26.7281 54.7405 26.7056L51.879 25.0362C51.8407 25.0143 51.8088 24.9825 51.7867 24.9441C51.7646 24.9056 51.753 24.8619 51.7531 24.8174V21.4747C51.7529 21.4299 51.7644 21.3858 51.7865 21.347C51.8086 21.3082 51.8405 21.276 51.879 21.2538L54.7405 19.5825C54.7787 19.5599 54.8221 19.548 54.8664 19.548C54.9106 19.548 54.954 19.5599 54.9922 19.5825L57.8518 21.2538C57.8902 21.276 57.9221 21.3082 57.9443 21.347C57.9664 21.3858 57.9779 21.4299 57.9776 21.4747V24.8174Z" fill="white"/>
<path fill-rule="evenodd" clip-rule="evenodd" d="M86.5005 21.3871C86.6526 21.2971 86.7788 21.1683 86.8664 21.0137C86.954 20.8591 87.0001 20.6839 87.0001 20.5056V18.1478C87.0002 17.9696 86.9539 17.7945 86.8658 17.6401C86.7778 17.4857 86.6511 17.3575 86.4986 17.2684L78.2188 12.4036C78.0658 12.3142 77.8921 12.2671 77.7154 12.2671C77.5386 12.2671 77.365 12.3142 77.2119 12.4036L68.881 17.2684C68.7281 17.3577 68.601 17.4862 68.5127 17.6409C68.4243 17.7956 68.3777 17.9711 68.3776 18.1498V27.8795C68.3776 28.0594 68.4248 28.2361 68.5142 28.3917C68.6037 28.5472 68.7323 28.676 68.8869 28.7649L77.1647 33.5402C77.3148 33.6256 77.4841 33.6704 77.6564 33.6704C77.8286 33.6704 77.9979 33.6256 78.148 33.5402L83.1552 30.7247C83.2324 30.68 83.2966 30.6154 83.3413 30.5375C83.3859 30.4595 83.4094 30.3711 83.4094 30.281C83.4094 30.191 83.3859 30.1025 83.3413 30.0246C83.2966 29.9467 83.2324 29.8821 83.1552 29.8373L74.7712 24.9705C74.6948 24.9256 74.6313 24.8612 74.5871 24.7837C74.5429 24.7062 74.5196 24.6183 74.5195 24.5288V21.4885C74.5196 21.3993 74.5428 21.3117 74.587 21.2345C74.6312 21.1573 74.6948 21.0933 74.7712 21.0488L77.3889 19.5187C77.4654 19.4738 77.5522 19.4502 77.6406 19.4502C77.729 19.4502 77.8159 19.4738 77.8924 19.5187L80.5021 21.0409C80.5786 21.0853 80.6422 21.1493 80.6863 21.2265C80.7305 21.3037 80.7538 21.3914 80.7539 21.4806V23.8762C80.7535 23.9657 80.7766 24.0538 80.8207 24.1313C80.8649 24.2089 80.9285 24.2733 81.0052 24.318C81.0819 24.3627 81.1689 24.386 81.2574 24.3856C81.3459 24.3853 81.4328 24.3612 81.5091 24.3159L86.5005 21.3871Z" fill="white"/>
<path fill-rule="evenodd" clip-rule="evenodd" d="M77.5935 20.9314C77.6234 20.914 77.6573 20.9048 77.6918 20.9048C77.7263 20.9048 77.7602 20.914 77.7901 20.9314L79.389 21.8646C79.4181 21.882 79.4423 21.9068 79.4591 21.9364C79.476 21.966 79.4851 21.9995 79.4854 22.0337V23.9021C79.4851 23.9363 79.476 23.9698 79.4591 23.9994C79.4423 24.029 79.4181 24.0538 79.389 24.0712L77.7901 25.0044C77.7602 25.0218 77.7263 25.031 77.6918 25.031C77.6573 25.031 77.6234 25.0218 77.5935 25.0044L75.9946 24.0752C75.9655 24.0577 75.9413 24.033 75.9245 24.0034C75.9076 23.9738 75.8985 23.9402 75.8982 23.906V22.0377C75.8985 22.0035 75.9076 21.97 75.9245 21.9404C75.9413 21.9108 75.9655 21.886 75.9946 21.8686L77.5935 20.9314Z" fill="white"/>
<path fill-rule="evenodd" clip-rule="evenodd" d="M32.6094 12.4536C32.4576 12.3647 32.2853 12.3179 32.1099 12.3179C31.9345 12.3179 31.7622 12.3647 31.6104 12.4536L23.3228 17.2906C23.1709 17.3798 23.0448 17.5078 22.9571 17.6617C22.8694 17.8157 22.8233 17.9903 22.8232 18.168V27.8559C22.8233 28.0336 22.8694 28.2082 22.9571 28.3621C23.0448 28.5161 23.1709 28.6441 23.3228 28.7333L31.6084 33.5743C31.7609 33.6633 31.9338 33.7102 32.1099 33.7102C32.286 33.7102 32.4589 33.6633 32.6114 33.5743L40.8951 28.7333C41.047 28.6441 41.1731 28.5161 41.2607 28.3621C41.3484 28.2082 41.3946 28.0336 41.3946 27.8559V18.168C41.3946 17.9903 41.3484 17.8157 41.2607 17.6617C41.1731 17.5078 41.047 17.3798 40.8951 17.2906L32.6094 12.4536Z" fill="white"/>
<path d="M31.5928 12.4533L23.2895 17.2903C23.1327 17.3771 23.0008 17.5036 22.9067 17.6574C22.8126 17.8112 22.7595 17.987 22.7526 18.1677V27.8556C22.7585 28.0953 22.8508 28.3246 23.0122 28.5003L32.3421 12.3519C32.0887 12.2872 31.8204 12.3235 31.5928 12.4533Z" fill="white"/>
<path d="M32.3873 33.6672C32.4692 33.6453 32.5479 33.6125 32.6214 33.5697L40.9168 28.7288C41.0712 28.6407 41.2003 28.5135 41.2913 28.3596C41.3824 28.2058 41.4322 28.0306 41.436 27.8513V18.1675C41.4339 18.0359 41.4061 17.9061 41.3541 17.7856C41.3021 17.665 41.227 17.5561 41.1331 17.4651L32.3873 33.6672Z" fill="white"/>
<path d="M40.9069 17.2903L32.6016 12.4534C32.5201 12.4067 32.4328 12.3713 32.342 12.3479L23.0101 28.4963C23.0906 28.5882 23.1849 28.6667 23.2894 28.7291L31.6124 33.57C31.7285 33.6371 31.8566 33.6802 31.9892 33.697C32.1219 33.7137 32.2565 33.7037 32.3853 33.6675L41.1311 17.4654C41.0649 17.3966 40.9894 17.3377 40.9069 17.2903Z" fill="white"/>
<path d="M41.436 27.8558V18.1679C41.4311 17.9877 41.3796 17.8119 41.2868 17.658C41.194 17.5041 41.0631 17.3774 40.907 17.2905L32.6017 12.4535C32.5068 12.3994 32.4038 12.3611 32.2969 12.3401L41.4065 28.0846C41.425 28.0097 41.4349 27.9329 41.436 27.8558Z" fill="white"/>
<path d="M23.2895 17.2906C23.1327 17.3774 23.0008 17.5039 22.9067 17.6577C22.8126 17.8115 22.7595 17.9873 22.7526 18.168V27.8559C22.7599 28.0367 22.8134 28.2126 22.9078 28.3664C23.0022 28.5201 23.1344 28.6466 23.2914 28.7333L31.6144 33.5743C31.8088 33.6859 32.034 33.73 32.2556 33.6996L23.3386 17.2627L23.2895 17.2906Z" fill="white"/>
<path d="M31.3332 10.6746L31.2191 10.7402H31.3705L31.3332 10.6746Z" fill="white"/>
<path d="M40.9168 28.7291C41.1575 28.5877 41.3335 28.3561 41.4065 28.0844L32.2969 12.336C32.0564 12.2862 31.8062 12.3265 31.5928 12.4494L23.3328 17.2585L32.2536 33.6954C32.3822 33.6772 32.5063 33.6347 32.6194 33.5701L40.9168 28.7291Z" fill="white"/>
<path d="M41.6878 28.5718L41.6327 28.4783V28.6036L41.6878 28.5718Z" fill="white"/>
<path d="M40.9168 28.7292L32.6213 33.5701C32.5082 33.6348 32.3841 33.6773 32.2555 33.6955L32.4207 33.9999L41.6326 28.6039V28.4785L41.4065 28.0806C41.3343 28.3537 41.1583 28.5869 40.9168 28.7292Z" fill="white"/>
<path d="M40.9168 28.7292L32.6213 33.5701C32.5082 33.6348 32.3841 33.6773 32.2555 33.6955L32.4207 33.9999L41.6326 28.6039V28.4785L41.4065 28.0806C41.3343 28.3537 41.1583 28.5869 40.9168 28.7292Z" fill="white"/>
</g>
<defs>
<clipPath id="clip0">
<rect width="87" height="34" fill="white"/>
</clipPath>
</defs>
</svg>
