<svg width="50" height="50" viewBox="0 0 50 50" fill="none" xmlns="http://www.w3.org/2000/svg">
<path d="M36.4584 50C28.9917 50 22.9167 43.925 22.9167 36.4583C22.9167 28.9916 28.9917 22.9166 36.4584 22.9166C43.925 22.9166 50 28.9916 50 36.4583C50 43.925 43.925 50 36.4584 50ZM36.4584 25C30.1396 25 25 30.1416 25 36.4583C25 42.775 30.1396 47.9166 36.4584 47.9166C42.7771 47.9166 47.9167 42.775 47.9167 36.4583C47.9167 30.1416 42.7771 25 36.4584 25Z" fill="url(#paint0_linear)"/>
<path d="M34.375 41.6666C34.1 41.6666 33.8333 41.5562 33.6375 41.3624L29.4708 37.1958C29.0646 36.7895 29.0646 36.1291 29.4708 35.7228C29.8771 35.3166 30.5375 35.3166 30.9437 35.7228L34.3229 39.102L40.8812 31.6062C41.2604 31.1708 41.9187 31.1291 42.3521 31.5083C42.7854 31.8874 42.8292 32.5437 42.45 32.977L35.1583 41.3103C34.9687 41.527 34.6958 41.6562 34.4083 41.6666C34.3979 41.6666 34.3854 41.6666 34.375 41.6666Z" fill="white"/>
<path d="M19.7917 43.75H5.20833C2.3375 43.75 0 41.4146 0 38.5417V11.4583C0 8.58542 2.3375 6.25 5.20833 6.25H9.375C9.95 6.25 10.4167 6.71667 10.4167 7.29167C10.4167 7.86667 9.95 8.33333 9.375 8.33333H5.20833C3.48542 8.33333 2.08333 9.73542 2.08333 11.4583V38.5417C2.08333 40.2646 3.48542 41.6667 5.20833 41.6667H19.7917C20.3667 41.6667 20.8333 42.1333 20.8333 42.7083C20.8333 43.2833 20.3667 43.75 19.7917 43.75Z" fill="white"/>
<path d="M34.375 18.75C33.8 18.75 33.3333 18.2833 33.3333 17.7083V11.4583C33.3333 9.73542 31.9313 8.33333 30.2083 8.33333H26.0417C25.4667 8.33333 25 7.86667 25 7.29167C25 6.71667 25.4667 6.25 26.0417 6.25H30.2083C33.0792 6.25 35.4167 8.58542 35.4167 11.4583V17.7083C35.4167 18.2833 34.95 18.75 34.375 18.75Z" fill="white"/>
<path d="M23.9583 12.5H11.4583C9.7354 12.5 8.33331 11.0979 8.33331 9.375V5.20833C8.33331 4.63333 8.79998 4.16667 9.37498 4.16667H12.6041C13.0896 1.79167 15.1916 0 17.7083 0C20.225 0 22.3271 1.79167 22.8125 4.16667H26.0416C26.6166 4.16667 27.0833 4.63333 27.0833 5.20833V9.375C27.0833 11.0979 25.6812 12.5 23.9583 12.5ZM10.4166 6.25V9.375C10.4166 9.94792 10.8833 10.4167 11.4583 10.4167H23.9583C24.5333 10.4167 25 9.94792 25 9.375V6.25H21.875C21.3 6.25 20.8333 5.78333 20.8333 5.20833C20.8333 3.48542 19.4312 2.08333 17.7083 2.08333C15.9854 2.08333 14.5833 3.48542 14.5833 5.20833C14.5833 5.78333 14.1166 6.25 13.5416 6.25H10.4166Z" fill="white"/>
<path d="M28.125 18.75H7.29167C6.71667 18.75 6.25 18.2833 6.25 17.7083C6.25 17.1333 6.71667 16.6666 7.29167 16.6666H28.125C28.7 16.6666 29.1667 17.1333 29.1667 17.7083C29.1667 18.2833 28.7 18.75 28.125 18.75Z" fill="white"/>
<path d="M21.875 25H7.29167C6.71667 25 6.25 24.5333 6.25 23.9583C6.25 23.3833 6.71667 22.9166 7.29167 22.9166H21.875C22.45 22.9166 22.9167 23.3833 22.9167 23.9583C22.9167 24.5333 22.45 25 21.875 25Z" fill="white"/>
<path d="M17.7083 31.25H7.29167C6.71667 31.25 6.25 30.7833 6.25 30.2083C6.25 29.6333 6.71667 29.1666 7.29167 29.1666H17.7083C18.2833 29.1666 18.75 29.6333 18.75 30.2083C18.75 30.7833 18.2833 31.25 17.7083 31.25Z" fill="white"/>
<defs>
<linearGradient id="paint0_linear" x1="22.9167" y1="50" x2="50" y2="50" gradientUnits="userSpaceOnUse">
<stop stop-color="#FB8133"/>
<stop offset="1" stop-color="#FFBA08"/>
</linearGradient>
</defs>
</svg>
