<svg width="50" height="50" viewBox="0 0 50 50" fill="none" xmlns="http://www.w3.org/2000/svg">
<path d="M36.4583 44.7917C35.8833 44.7917 35.4166 44.325 35.4166 43.75V41.6667C35.4166 41.0917 35.8833 40.625 36.4583 40.625C37.0333 40.625 37.5 41.0917 37.5 41.6667V43.75C37.5 44.325 37.0333 44.7917 36.4583 44.7917Z" fill="url(#paint0_linear)"/>
<path d="M36.4583 32.2917C35.8833 32.2917 35.4166 31.825 35.4166 31.25V29.1667C35.4166 28.5917 35.8833 28.125 36.4583 28.125C37.0333 28.125 37.5 28.5917 37.5 29.1667V31.25C37.5 31.825 37.0333 32.2917 36.4583 32.2917Z" fill="url(#paint1_linear)"/>
<path d="M36.9791 42.7084H33.3333C32.7583 42.7084 32.2916 42.2417 32.2916 41.6667C32.2916 41.0917 32.7583 40.6251 33.3333 40.6251H36.9791C37.8416 40.6251 38.5416 39.9251 38.5416 39.0626C38.5416 38.2 37.8416 37.5 36.9791 37.5H35.9375C33.927 37.5 32.2916 35.8646 32.2916 33.8542C32.2916 31.8438 33.927 30.2084 35.9375 30.2084H39.5833C40.1583 30.2084 40.625 30.675 40.625 31.25C40.625 31.825 40.1583 32.2917 39.5833 32.2917H35.9375C35.075 32.2917 34.375 32.9917 34.375 33.8542C34.375 34.7167 35.075 35.4167 35.9375 35.4167H36.9791C38.9896 35.4167 40.625 37.0521 40.625 39.0626C40.625 41.073 38.9896 42.7084 36.9791 42.7084Z" fill="url(#paint2_linear)"/>
<path d="M36.4583 50C28.9916 50 22.9166 43.925 22.9166 36.4583C22.9166 28.9916 28.9916 22.9166 36.4583 22.9166C43.925 22.9166 50 28.9916 50 36.4583C50 43.925 43.925 50 36.4583 50ZM36.4583 25C30.1396 25 25 30.1396 25 36.4583C25 42.7771 30.1396 47.9167 36.4583 47.9167C42.7771 47.9167 47.9167 42.7771 47.9167 36.4583C47.9167 30.1396 42.7771 25 36.4583 25Z" fill="url(#paint3_linear)"/>
<path d="M17.7084 43.75H5.20834C2.3375 43.75 0 41.4125 0 38.5417V5.20834C0 2.3375 2.3375 0 5.20834 0H28.125C30.9959 0 33.3334 2.3375 33.3334 5.20834V17.7084C33.3334 18.2834 32.8667 18.75 32.2917 18.75C31.7167 18.75 31.25 18.2834 31.25 17.7084V5.20834C31.25 3.48542 29.8479 2.08334 28.125 2.08334H5.20834C3.48542 2.08334 2.08334 3.48542 2.08334 5.20834V38.5417C2.08334 40.2646 3.48542 41.6667 5.20834 41.6667H17.7084C18.2834 41.6667 18.75 42.1334 18.75 42.7084C18.75 43.2834 18.2834 43.75 17.7084 43.75Z" fill="white"/>
<path d="M8.11173 25C7.82727 25 7.54281 24.8938 7.32502 24.6836C6.89166 24.2611 6.89166 23.5742 7.32502 23.1516L12.8809 17.7343C13.2187 17.4027 13.7343 17.3204 14.1632 17.5306L17.8923 19.3486L25.1038 12.3169C25.5371 11.8944 26.2416 11.8944 26.675 12.3169C27.1083 12.7395 27.1083 13.4264 26.675 13.8489L18.8968 21.4332C18.5568 21.7648 18.0389 21.8428 17.6145 21.6369L13.8854 19.8189L8.89622 24.6836C8.68065 24.8938 8.39619 25 8.11173 25Z" fill="white"/>
<defs>
<linearGradient id="paint0_linear" x1="35.4166" y1="44.7917" x2="37.5" y2="44.7917" gradientUnits="userSpaceOnUse">
<stop stop-color="#FB8133"/>
<stop offset="1" stop-color="#FFBA08"/>
</linearGradient>
<linearGradient id="paint1_linear" x1="35.4166" y1="32.2917" x2="37.5" y2="32.2917" gradientUnits="userSpaceOnUse">
<stop stop-color="#FB8133"/>
<stop offset="1" stop-color="#FFBA08"/>
</linearGradient>
<linearGradient id="paint2_linear" x1="32.2916" y1="42.7084" x2="40.625" y2="42.7084" gradientUnits="userSpaceOnUse">
<stop stop-color="#FB8133"/>
<stop offset="1" stop-color="#FFBA08"/>
</linearGradient>
<linearGradient id="paint3_linear" x1="22.9166" y1="50" x2="50" y2="50" gradientUnits="userSpaceOnUse">
<stop stop-color="#FB8133"/>
<stop offset="1" stop-color="#FFBA08"/>
</linearGradient>
</defs>
</svg>
