<svg width="52" height="52" viewBox="0 0 52 52" fill="none" xmlns="http://www.w3.org/2000/svg">
<path d="M19.5 45.5C8.66667 45.5 0 36.8333 0 26C0 15.1667 8.66667 6.5 19.5 6.5C24.7 6.5 29.6833 8.45 33.3667 12.1333C35.1 13.8667 36.4 15.8167 37.4833 17.9833C37.7 18.6333 37.4833 19.0667 37.05 19.5C36.4 19.7167 35.9667 19.5 35.5333 19.0667C34.6667 17.1167 33.3667 15.3833 32.0667 13.8667C28.3833 10.4 24.05 8.66667 19.5 8.66667C9.96667 8.66667 2.16667 16.4667 2.16667 26C2.16667 35.5333 9.96667 43.3333 19.5 43.3333C20.15 43.3333 20.5833 43.7667 20.5833 44.4167C20.5833 45.0667 20.15 45.5 19.5 45.5Z" fill="white"/>
<path d="M18.4166 37.9166C12.1333 37.2666 7.58325 32.2833 7.58325 25.9999C7.58325 19.4999 12.9999 14.0833 19.4999 14.0833C22.7499 14.0833 25.5666 15.3833 27.9499 17.5499C28.5999 18.1999 29.2499 19.0666 29.8999 20.1499C30.1166 20.5833 30.1166 21.2333 29.4666 21.6666C29.0333 21.8833 28.3832 21.8833 27.9499 21.2333C27.5166 20.3666 27.0833 19.7166 26.4333 19.0666C24.4832 17.3333 22.0999 16.2499 19.4999 16.2499C14.0833 16.2499 9.74992 20.5833 9.74992 25.9999C9.74992 30.9833 13.4333 35.3166 18.6333 35.7499C19.0666 35.7499 19.4999 36.1833 19.4999 36.8333C19.4999 37.4833 19.0666 37.9166 18.4166 37.9166Z" fill="white"/>
<path d="M19.5 27.0833C19.2833 27.0833 18.85 27.0833 18.6333 26.8667C18.2 26.4333 18.2 25.7833 18.6333 25.35L32.7167 11.2667C33.15 10.8333 33.8 10.8333 34.2333 11.2667C34.6667 11.7 34.6667 12.35 34.2333 12.7833L20.15 26.8667C20.15 27.0833 19.7167 27.0833 19.5 27.0833Z" fill="white"/>
<path d="M39 13H33.5833C32.9333 13 32.5 12.5667 32.5 11.9167V6.5C32.5 6.28333 32.7167 5.85 32.7167 5.63333L38.1333 0.216667C38.5667 0 39 0 39.4333 0C39.8667 0.216667 40.0833 0.65 40.0833 1.08333V5.41667H44.4167C44.85 5.41667 45.2833 5.63333 45.5 6.06667C45.5 6.5 45.5 6.93333 45.2833 7.36667L39.8667 12.7833C39.65 12.7833 39.2167 13 39 13ZM34.6667 10.8333H38.5667L41.8167 7.58333H39C38.35 7.58333 37.9167 7.15 37.9167 6.5V3.68333L34.6667 6.93333V10.8333Z" fill="white"/>
<path d="M37.9166 51.9999C30.1166 51.9999 23.8333 45.7166 23.8333 37.9166C23.8333 30.1166 30.1166 23.8333 37.9166 23.8333C45.7166 23.8333 51.9999 30.1166 51.9999 37.9166C51.9999 45.7166 45.7166 51.9999 37.9166 51.9999ZM37.9166 25.9999C31.4166 25.9999 25.9999 31.4166 25.9999 37.9166C25.9999 44.4166 31.4166 49.8333 37.9166 49.8333C44.4166 49.8333 49.8333 44.4166 49.8333 37.9166C49.8333 31.4166 44.4166 25.9999 37.9166 25.9999Z" fill="url(#paint0_linear)"/>
<path d="M35.4453 43.3333C35.2286 43.3333 35.1406 43.2656 34.8833 43.1166L30.55 38.7833C30.1166 38.3499 30.1166 37.6999 30.55 37.2666C30.9833 36.8333 31.6333 36.8333 32.0666 37.2666L35.5333 40.7333L42.25 32.9333C42.6833 32.4999 43.3333 32.4999 43.7666 32.9333C44.2 33.3666 44.2 34.0166 43.7666 34.4499L36.1833 43.1166C36.1054 43.2148 35.8786 43.3333 35.4453 43.3333Z" fill="url(#paint1_linear)"/>
<defs>
<linearGradient id="paint0_linear" x1="23.8333" y1="51.9999" x2="51.9999" y2="51.9999" gradientUnits="userSpaceOnUse">
<stop stop-color="#FB8133"/>
<stop offset="1" stop-color="#FFBA08"/>
</linearGradient>
<linearGradient id="paint1_linear" x1="30.225" y1="43.3333" x2="44.0916" y2="43.3333" gradientUnits="userSpaceOnUse">
<stop stop-color="#FB8133"/>
<stop offset="1" stop-color="#FFBA08"/>
</linearGradient>
</defs>
</svg>
