<svg width="58" height="59" viewBox="0 0 58 59" fill="none" xmlns="http://www.w3.org/2000/svg">
<path d="M25.8553 0.0243595C25.67 0.0476681 24.9407 0.129248 24.2346 0.199174C20.6343 0.560457 17.856 1.45784 16.6057 2.6932C15.9227 3.35749 15.5407 4.0684 15.2629 5.1406C15.0545 5.9564 15.0313 6.43423 15.0313 9.65081V13.2403H28.923V14.9768L18.539 15.0118C8.86112 15.0468 8.09707 15.0701 7.39091 15.2682C4.45051 16.1073 2.32045 18.1235 1.32488 21.0021C0.688179 22.8435 0.132512 26.0368 0.0167483 28.4492C-0.133745 31.8989 0.746061 36.7121 2.00789 39.3227C2.56356 40.4531 2.79508 40.7795 3.54755 41.5486C4.08006 42.0847 4.71677 42.5975 5.14509 42.819C6.4185 43.4833 6.92786 43.5648 10.1808 43.6231L13.156 43.6814L13.2138 39.8005C13.2601 36.2459 13.2833 35.838 13.5148 35.0572C14.5104 31.6425 17.1961 29.1718 20.588 28.5541C21.2594 28.4376 23.1927 28.4026 29.1545 28.3909C35.591 28.3909 36.9686 28.356 37.5937 28.2161C40.0132 27.6334 42.1201 25.5007 42.7568 22.9717C43.0231 21.9345 43.0115 7.21506 42.7568 6.20114C42.4674 5.07067 41.796 3.94021 40.9046 3.03117C38.6935 0.805198 36.0309 0.0942853 29.5018 0.0127052C27.6843 -0.0106034 26.0521 0.00105086 25.8553 0.0243595ZM22.1624 4.48796C23.0306 4.8842 23.7136 5.9564 23.7136 6.94702C23.7136 8.35719 22.4634 9.62751 21.0858 9.62751C20.5301 9.62751 19.7545 9.30118 19.3262 8.89328C18.2496 7.86771 18.2264 6.0846 19.2683 5.03571C20.0092 4.28983 21.2247 4.05675 22.1624 4.48796Z" fill="white"/>
<path d="M44.6668 18.6941C44.6668 22.0156 44.6437 22.5051 44.4353 23.3325C43.8102 25.8382 42.1085 27.9942 39.8048 29.1946C38.0451 30.1153 38.6471 30.0571 29.2702 30.1386C20.0438 30.2202 20.4374 30.1853 18.8515 30.9661C17.8212 31.4789 16.3857 32.9357 15.8185 34.0428C15.0197 35.6045 15.0313 35.418 15.0313 44.0189C15.0313 52.4916 15.0197 52.3401 15.7258 53.6687C16.1657 54.4961 17.5433 55.8713 18.5389 56.4541C21.514 58.2372 26.5729 59.2744 30.5784 58.9364C35.8688 58.4936 40.2678 56.6755 41.8654 54.2747C42.8378 52.8063 42.8609 52.6664 42.9072 48.8088L42.942 45.4058H28.9229V43.6576H39.5501C45.7434 43.6576 50.4898 43.611 50.9413 43.5411C53.6154 43.1448 55.2129 41.4433 56.6253 37.4226C57.2388 35.7094 57.4819 34.777 57.7482 33.2154C58.0839 31.2924 58.0839 28.4721 57.7482 26.2111C56.7295 19.1719 54.8425 15.8854 51.3927 15.1512C50.8486 15.0347 49.7605 14.988 47.6536 14.988H44.6668V18.6941ZM37.8136 49.2051C39.1796 49.7761 39.8279 51.3961 39.2144 52.748C38.7397 53.7969 37.9641 54.3097 36.8528 54.3097C35.2784 54.3097 34.1671 53.1093 34.2712 51.5126C34.387 49.6946 36.1929 48.5175 37.8136 49.2051Z" fill="white"/>
</svg>
