<svg width="50" height="48" viewBox="0 0 50 48" fill="none" xmlns="http://www.w3.org/2000/svg">
<path d="M25 47.9166C24.425 47.9166 23.9583 47.4499 23.9583 46.8749V34.3749C23.9583 33.7999 24.425 33.3333 25 33.3333C25.575 33.3333 26.0416 33.7999 26.0416 34.3749V46.8749C26.0416 47.4499 25.575 47.9166 25 47.9166Z" fill="white"/>
<path d="M34.375 47.9168C34.1771 47.9168 33.9771 47.8605 33.798 47.7418L24.423 41.4918C23.9438 41.173 23.8146 40.5272 24.1334 40.048C24.4521 39.5688 25.0959 39.4397 25.5771 39.7584L34.9521 46.0084C35.4313 46.3272 35.5605 46.973 35.2417 47.4522C35.0417 47.7543 34.7105 47.9168 34.375 47.9168Z" fill="white"/>
<path d="M15.625 47.9165C15.2875 47.9165 14.9583 47.754 14.7562 47.4519C14.4375 46.9727 14.5667 46.3269 15.0458 46.0081L24.4208 39.7581C24.9 39.4373 25.5479 39.5685 25.8646 40.0477C26.1833 40.5269 26.0541 41.1727 25.575 41.4915L16.2 47.7415C16.025 47.8602 15.825 47.9165 15.625 47.9165Z" fill="white"/>
<path d="M45.8333 8.33333H4.16667C1.86875 8.33333 0 6.46458 0 4.16667C0 1.86875 1.86875 0 4.16667 0H45.8333C48.1312 0 50 1.86875 50 4.16667C50 6.46458 48.1312 8.33333 45.8333 8.33333ZM4.16667 2.08333C3.01875 2.08333 2.08333 3.01875 2.08333 4.16667C2.08333 5.31458 3.01875 6.25 4.16667 6.25H45.8333C46.9812 6.25 47.9167 5.31458 47.9167 4.16667C47.9167 3.01875 46.9812 2.08333 45.8333 2.08333H4.16667Z" fill="white"/>
<path d="M42.7084 35.4164H7.29169C5.56877 35.4164 4.16669 34.0143 4.16669 32.2914V7.29142C4.16669 6.71642 4.63335 6.24976 5.20835 6.24976H44.7917C45.3667 6.24976 45.8334 6.71642 45.8334 7.29142V32.2914C45.8334 34.0143 44.4313 35.4164 42.7084 35.4164ZM6.25002 8.33309V32.2914C6.25002 32.8664 6.71669 33.3331 7.29169 33.3331H42.7084C43.2834 33.3331 43.75 32.8664 43.75 32.2914V8.33309H6.25002Z" fill="white"/>
<path d="M13.5417 29.1666C13.275 29.1666 13.0084 29.0645 12.8042 28.8624C12.3979 28.4562 12.3979 27.7958 12.8042 27.3895L21.1375 19.0562C21.4896 18.7041 22.0396 18.6499 22.4521 18.9249L27.9084 22.5624L35.6438 12.8916C36.0042 12.4457 36.6584 12.3687 37.1084 12.7291C37.5563 13.0895 37.6292 13.7437 37.2709 14.1937L28.9375 24.6103C28.6 25.0312 27.998 25.1291 27.5459 24.827L22.0063 21.1353L14.2771 28.8645C14.075 29.0645 13.8084 29.1666 13.5417 29.1666Z" fill="url(#paint0_linear)"/>
<defs>
<linearGradient id="paint0_linear" x1="12.4995" y1="29.1666" x2="37.4984" y2="29.1666" gradientUnits="userSpaceOnUse">
<stop stop-color="#FB8133"/>
<stop offset="1" stop-color="#FFBA08"/>
</linearGradient>
</defs>
</svg>
