<svg width="56" height="60" viewBox="0 0 56 60" fill="none" xmlns="http://www.w3.org/2000/svg">
<g clip-path="url(#clip0)">
<path d="M27.7227 11.1175C25.1351 13.0674 22.2024 15.2775 20.631 18.9339C17.9017 25.313 26.216 32.2713 26.5713 32.5644C26.6539 32.6324 26.7528 32.6664 26.8513 32.6664C26.956 32.6664 27.0608 32.6281 27.1459 32.5517C27.3109 32.4038 27.3577 32.1526 27.2586 31.9479C27.2285 31.8858 24.2441 25.6749 24.355 21.2192C24.3943 19.6672 26.4214 17.9067 28.5673 16.0428C30.5328 14.3356 32.7608 12.4008 34.0643 10.1373C36.926 5.15491 33.7454 0.255746 33.7129 0.206762C33.5865 0.0166826 33.3534 -0.0521067 33.154 0.0415265C32.9548 0.135746 32.8444 0.366489 32.8899 0.594654C32.8964 0.627115 33.5149 3.86689 31.7938 7.20476C31.0848 8.58406 29.5269 9.75805 27.7227 11.1175Z" fill="white"/>
<path d="M38.6245 13.3146C38.807 13.1673 38.8606 12.8986 38.7502 12.6841C38.6397 12.4697 38.399 12.3751 38.1853 12.4621C37.7457 12.6411 27.421 16.9053 27.421 22.0574C27.421 25.609 28.837 27.4852 29.8709 28.8554C30.2765 29.3928 30.6266 29.8569 30.742 30.2531C31.0668 31.3948 30.2973 33.4585 29.9736 34.1574C29.8803 34.3583 29.926 34.6018 30.0848 34.7485C30.1705 34.8279 30.2776 34.8682 30.3848 34.8682C30.476 34.8682 30.5676 34.8391 30.6468 34.78C30.8243 34.6479 34.9854 31.4957 34.2392 27.698C33.9611 26.2545 33.2991 25.1998 32.7149 24.2691C31.8099 22.8271 31.1563 21.7855 32.1479 19.8618C33.3097 17.6179 38.5712 13.3573 38.6245 13.3146Z" fill="white"/>
<path d="M11.749 34.9495C11.572 35.5172 11.6556 36.0804 11.9904 36.5787C13.1096 38.2436 17.0741 39.1603 23.1541 39.1603C23.1544 39.1603 23.1546 39.1603 23.1549 39.1603C23.9787 39.1603 24.8484 39.1429 25.7393 39.1087C35.46 38.7359 39.0655 35.4912 39.2142 35.3533C39.3763 35.2029 39.4196 34.9526 39.3189 34.7501C39.2181 34.5477 39.0007 34.446 38.793 34.5073C35.3695 35.5088 28.9768 35.8643 24.5427 35.8643C19.5811 35.8643 17.0543 35.4814 16.4357 35.1986C16.7531 34.7316 18.7109 33.8977 21.137 33.3864C21.3689 33.3377 21.5282 33.1082 21.5053 32.8562C21.4823 32.6043 21.2848 32.4121 21.0484 32.4121C19.6263 32.4121 12.4945 32.5345 11.749 34.9495Z" fill="white"/>
<path d="M44.2766 31.6077C42.2716 31.6077 40.3703 32.6844 40.2903 32.73C40.1049 32.8364 40.0108 33.0642 40.0617 33.2831C40.1128 33.5017 40.2962 33.6553 40.5065 33.6555C40.549 33.6555 44.7833 33.6927 45.1668 36.2848C45.5065 38.5209 41.1605 42.1442 39.4572 43.3517C39.2732 43.4821 39.2018 43.734 39.2872 43.952C39.3599 44.1375 39.5285 44.2535 39.7102 44.2535C39.742 44.2535 39.7741 44.25 39.8061 44.2428C40.2103 44.1501 49.6943 41.9108 48.6915 35.9946C48.0798 32.3688 45.9529 31.6077 44.2766 31.6077Z" fill="white"/>
<path d="M37.7725 42.6276C37.8056 42.4381 37.732 42.2454 37.5847 42.1346L35.3107 40.428C35.1998 40.3448 35.0597 40.3187 34.9295 40.3556C34.9058 40.362 32.5278 41.0319 29.0752 41.4426C27.705 41.6073 26.1702 41.6942 24.6366 41.6942C21.1849 41.6942 18.928 41.2597 18.5994 40.9409C18.5558 40.8514 18.5696 40.8108 18.5774 40.7881C18.6371 40.6102 18.9571 40.3988 19.1634 40.3152C19.3912 40.2248 19.5141 39.9597 19.4432 39.7108C19.3725 39.4616 19.1329 39.315 18.8964 39.3758C16.6153 39.9656 15.4999 40.7904 15.581 41.8271C15.7252 43.6653 19.699 44.6088 23.0585 44.8582C23.5416 44.8936 24.0641 44.9115 24.6111 44.9115C24.6114 44.9115 24.6116 44.9115 24.6119 44.9115C30.1982 44.9115 37.3596 43.0336 37.4312 43.0145C37.6061 42.9688 37.7394 42.8175 37.7725 42.6276Z" fill="white"/>
<path d="M20.6284 46.5728C20.8007 46.4528 20.877 46.2246 20.8159 46.0145C20.755 45.8044 20.5715 45.6663 20.3655 45.6692C20.0598 45.6779 17.3742 45.8077 17.1861 47.6398C17.1293 48.1873 17.2756 48.6875 17.6213 49.1264C18.5856 50.3508 21.1885 51.0785 25.5774 51.3511C26.0966 51.3845 26.624 51.4013 27.1452 51.4013C32.725 51.4013 36.4829 49.5294 36.6403 49.4497C36.7929 49.3724 36.8935 49.2117 36.9025 49.0312C36.9115 48.8508 36.8274 48.6796 36.6834 48.5852L33.8096 46.7055C33.7098 46.6404 33.5905 46.6188 33.4767 46.6438C33.4586 46.6479 31.6339 47.0533 28.8801 47.4539C28.3591 47.5298 27.7065 47.5684 26.9409 47.5684C24.1901 47.5684 21.1304 47.0869 20.5436 46.7715C20.5351 46.7127 20.5459 46.6379 20.6284 46.5728Z" fill="white"/>
<path d="M24.5448 57.0531C37.3257 57.0415 44.1854 54.6062 45.5069 53.0737C45.9747 52.5316 46.0252 52.0183 45.9855 51.6831C45.8873 50.8581 45.1859 50.353 45.1064 50.2981C44.9145 50.1659 44.657 50.2005 44.5074 50.3854C44.3581 50.5704 44.3546 50.8406 44.5045 51.0254C44.5851 51.1365 44.6317 51.3225 44.396 51.5752C43.8677 52.1039 38.5395 53.7085 29.6679 54.1906C28.4526 54.2583 27.178 54.2927 25.8796 54.293C17.9364 54.293 12.1232 53.1272 11.3601 52.4479C11.6542 51.9951 13.7105 51.2717 15.8972 50.8625C16.1436 50.8165 16.3101 50.5677 16.2719 50.3028C16.2338 50.0381 16.0059 49.8559 15.7569 49.8904C15.6952 49.8995 15.4859 49.9128 15.2435 49.9288C11.6354 50.1648 7.4659 50.6908 7.24835 52.6827C7.18229 53.2896 7.35062 53.8406 7.74885 54.3201C8.72328 55.4932 11.5241 57.0528 24.5443 57.0528C24.5445 57.0531 24.5445 57.0531 24.5448 57.0531Z" fill="white"/>
<path d="M48.0173 53.5055C47.8366 53.416 47.6231 53.4612 47.4884 53.6171C47.4697 53.6387 45.5481 55.7916 39.7704 57.0558C37.5585 57.5307 33.4066 57.7715 27.43 57.7715C21.4422 57.7715 15.7446 57.5191 15.6878 57.5165C15.4498 57.5041 15.2462 57.6895 15.2139 57.9405C15.1814 58.1913 15.3323 58.4277 15.5621 58.4863C15.6214 58.5013 21.5925 60.0002 29.7568 60.0002C33.6725 60.0002 37.4829 59.6595 41.0824 58.9871C47.7937 57.7265 48.2636 54.1609 48.2804 54.0098C48.3038 53.7985 48.1977 53.595 48.0173 53.5055Z" fill="white"/>
</g>
<defs>
<clipPath id="clip0">
<rect width="56" height="60" fill="white"/>
</clipPath>
</defs>
</svg>
