<svg width="50" height="42" viewBox="0 0 50 42" fill="none" xmlns="http://www.w3.org/2000/svg">
<path d="M13.5417 25.4166C12.9167 25.4166 12.5 24.9999 12.5 24.3749V15.6249C12.5 14.9999 12.9167 14.5833 13.5417 14.5833C14.1667 14.5833 14.5833 14.9999 14.5833 15.6249V24.3749C14.5833 24.7916 14.1667 25.4166 13.5417 25.4166Z" fill="url(#paint0_linear)"/>
<path d="M36.4583 25.4166C35.8333 25.4166 35.4166 24.9999 35.4166 24.3749V15.6249C35.4166 14.9999 35.8333 14.5833 36.4583 14.5833C37.0833 14.5833 37.5 14.9999 37.5 15.6249V24.3749C37.5 24.7916 37.0833 25.4166 36.4583 25.4166Z" fill="url(#paint1_linear)"/>
<path d="M48.9583 20.8333H1.04167C0.416667 20.8333 0 20.4167 0 19.7917C0 19.1667 0.416667 18.75 1.04167 18.75H48.9583C49.5833 18.75 50 19.1667 50 19.7917C50 20.4167 49.5833 20.8333 48.9583 20.8333Z" fill="url(#paint2_linear)"/>
<path d="M44.7917 41.6667H5.20833C2.29167 41.6667 0 39.375 0 36.4583V11.4583C0 8.54167 2.29167 6.25 5.20833 6.25H44.7917C47.7083 6.25 50 8.54167 50 11.4583V36.4583C50 39.375 47.7083 41.6667 44.7917 41.6667ZM5.20833 8.33333C3.54167 8.33333 2.08333 9.79167 2.08333 11.4583V36.4583C2.08333 38.125 3.54167 39.5833 5.20833 39.5833H44.7917C46.4583 39.5833 47.9167 38.125 47.9167 36.4583V11.4583C47.9167 9.79167 46.4583 8.33333 44.7917 8.33333H5.20833Z" fill="white"/>
<path d="M32.2916 8.33333C31.6666 8.33333 31.25 7.91667 31.25 7.29167V3.125C31.25 2.5 30.8333 2.08333 30.2083 2.08333H19.7916C19.1666 2.08333 18.75 2.5 18.75 3.125V7.29167C18.75 7.91667 18.3333 8.33333 17.7083 8.33333C17.0833 8.33333 16.6666 7.91667 16.6666 7.29167V3.125C16.6666 1.45833 18.125 0 19.7916 0H30.2083C31.875 0 33.3333 1.45833 33.3333 3.125V7.29167C33.3333 7.91667 32.9166 8.33333 32.2916 8.33333Z" fill="white"/>
<defs>
<linearGradient id="paint0_linear" x1="12.5" y1="25.4166" x2="14.5833" y2="25.4166" gradientUnits="userSpaceOnUse">
<stop stop-color="#FB8133"/>
<stop offset="1" stop-color="#FFBA08"/>
</linearGradient>
<linearGradient id="paint1_linear" x1="35.4166" y1="25.4166" x2="37.5" y2="25.4166" gradientUnits="userSpaceOnUse">
<stop stop-color="#FB8133"/>
<stop offset="1" stop-color="#FFBA08"/>
</linearGradient>
<linearGradient id="paint2_linear" x1="0" y1="20.8333" x2="50" y2="20.8333" gradientUnits="userSpaceOnUse">
<stop stop-color="#FB8133"/>
<stop offset="1" stop-color="#FFBA08"/>
</linearGradient>
</defs>
</svg>
